<svg width="24" height="24" viewBox="0 0 24 24" fill="none" xmlns="http://www.w3.org/2000/svg">
<path d="M8 12C8 12.5523 7.55228 13 7 13C6.44772 13 6 12.5523 6 12C6 11.4477 6.44772 11 7 11C7.55228 11 8 11.4477 8 12Z" fill="#0284AD"/>
<path d="M9.5 13C10.0523 13 10.5 12.5523 10.5 12C10.5 11.4477 10.0523 11 9.5 11C8.94772 11 8.5 11.4477 8.5 12C8.5 12.5523 8.94772 13 9.5 13Z" fill="#0284AD"/>
<path d="M13 12C13 12.5523 12.5523 13 12 13C11.4477 13 11 12.5523 11 12C11 11.4477 11.4477 11 12 11C12.5523 11 13 11.4477 13 12Z" fill="#0284AD"/>
<path fill-rule="evenodd" clip-rule="evenodd" d="M8.5 2C8.5 1.44772 8.94772 1 9.5 1H12.5C13.0523 1 13.5 1.44772 13.5 2C13.5 2.30865 13.9021 3 15 3C16.0979 3 16.5 2.30865 16.5 2C16.5 1.44772 16.9477 1 17.5 1H20.5C21.0523 1 21.5 1.44772 21.5 2V17C21.5 17.5523 21.0523 18 20.5 18H17.5C16.9477 18 16.5 17.5523 16.5 17C16.5 16.7871 16.3596 16.4649 16 16.2441V22C16 22.5523 15.5523 23 15 23H12C11.4477 23 11 22.5523 11 22C11 21.6489 10.618 21 9.5 21C8.382 21 8 21.6489 8 22C8 22.5523 7.55228 23 7 23H4C3.44772 23 3 22.5523 3 22V7C3 6.44772 3.44772 6 4 6H7C7.55228 6 8 6.44772 8 7C8 7.18559 8.14539 7.50955 8.5 7.73837V2ZM18.3131 16C17.9453 15.0638 17.0694 14.3832 16 14.1199V7C16 6.44772 15.5523 6 15 6H12C11.4477 6 11 6.44772 11 7C11 7.18559 10.8546 7.50955 10.5 7.73837V3H11.6968C12.1798 4.18034 13.4946 5 15 5C16.5054 5 17.8202 4.18034 18.3032 3H19.5V16H18.3131ZM12.8032 8C12.3202 9.18034 11.0054 10 9.5 10C7.99463 10 6.67982 9.18034 6.19681 8H5V21H6.18688C6.66441 19.7846 7.99815 19 9.5 19C11.0019 19 12.3356 19.7846 12.8131 21H14V8H12.8032Z" fill="#0284AD"/>
</svg>
