<svg width="22" height="21" viewBox="0 0 22 21" fill="none" xmlns="http://www.w3.org/2000/svg">
<path fill-rule="evenodd" clip-rule="evenodd" d="M0.5 9.5C0.5 4.25332 4.75332 0 10 0C15.2467 0 19.5 4.25332 19.5 9.5C19.5 11.7631 18.7086 13.8414 17.3875 15.4733L21.0607 19.1464C21.4512 19.537 21.4512 20.1701 21.0607 20.5607C20.6701 20.9512 20.037 20.9512 19.6464 20.5607L15.9733 16.8875C14.3414 18.2086 12.2631 19 10 19C4.75332 19 0.5 14.7467 0.5 9.5ZM10 2C5.85788 2 2.5 5.35788 2.5 9.5C2.5 13.6421 5.85788 17 10 17C14.1421 17 17.5 13.6421 17.5 9.5C17.5 5.35788 14.1421 2 10 2ZM6.46447 5.46442C7.36823 4.56072 8.61959 4 10 4C11.3804 4 12.6318 4.56072 13.5355 5.46444C13.926 5.85497 13.926 6.48813 13.5355 6.87866C13.145 7.26918 12.5118 7.26918 12.1213 6.87866C11.5773 6.33468 10.8287 6 10 6C9.17131 6 8.42267 6.33468 7.87863 6.87868C7.48809 7.26919 6.85493 7.26917 6.46442 6.87863C6.07391 6.48809 6.07393 5.85493 6.46447 5.46442Z" fill="#0284AD"/>
</svg>
