<svg width="16" height="15" viewBox="0 0 16 15" fill="none" xmlns="http://www.w3.org/2000/svg">
<path fill-rule="evenodd" clip-rule="evenodd" d="M7.99792 0.500002C8.25176 0.49935 8.48395 0.642911 8.5968 0.870291L10.5057 4.71658L14.763 5.33734C15.0137 5.37391 15.2221 5.54949 15.3006 5.79044C15.3791 6.03138 15.3143 6.29602 15.1332 6.47333L12.0367 9.50592L12.772 13.7187C12.8158 13.9697 12.7127 14.2237 12.5064 14.3732C12.3 14.5227 12.0265 14.5415 11.8017 14.4217L7.99967 12.3952L4.19852 14.4216C3.97354 14.5416 3.69985 14.5227 3.49347 14.373C3.28708 14.2233 3.18415 13.969 3.22831 13.7179L3.96891 9.50591L0.867389 6.47374C0.686037 6.29644 0.620993 6.0316 0.699579 5.79046C0.778166 5.54932 0.986769 5.37366 1.23776 5.33727L5.51809 4.71659L7.40095 0.873363C7.51263 0.645407 7.74408 0.500654 7.99792 0.500002ZM8.00351 2.67407L6.56065 5.61917C6.46378 5.81689 6.27553 5.95404 6.05764 5.98563L2.76395 6.46324L5.15245 8.79833C5.3098 8.95217 5.3811 9.17375 5.34299 9.39048L4.77839 12.6015L7.68601 11.0514C7.88202 10.947 8.11719 10.9469 8.3132 11.0514L11.2237 12.6027L10.6629 9.38966C10.6251 9.17337 10.6963 8.95236 10.8532 8.79874L13.2387 6.46251L9.96767 5.98556C9.75119 5.95399 9.56396 5.81821 9.4667 5.62224L8.00351 2.67407Z" fill="#0284AD"/>
</svg>
