<svg width="66" height="27" viewBox="0 0 66 27" fill="none" xmlns="http://www.w3.org/2000/svg">
<path d="M12.7949 6.07227C12.9954 6.07227 13.3372 6.10417 13.8203 6.16797C14.3034 6.23177 14.832 6.41406 15.4062 6.71484C15.9896 7.00651 16.5182 7.49414 16.9922 8.17773C16.9648 8.20508 16.8327 8.30534 16.5957 8.47852C16.3587 8.64258 16.0944 8.88867 15.8027 9.2168C15.5111 9.53581 15.2559 9.94596 15.0371 10.4473C14.8184 10.9395 14.709 11.5273 14.709 12.2109C14.709 12.9948 14.8457 13.6602 15.1191 14.207C15.4017 14.7539 15.7253 15.196 16.0898 15.5332C16.4635 15.8613 16.7917 16.1029 17.0742 16.2578C17.3659 16.4128 17.5208 16.4948 17.5391 16.5039C17.5299 16.5404 17.4115 16.8639 17.1836 17.4746C16.9648 18.0853 16.6003 18.7643 16.0898 19.5117C15.6432 20.1589 15.1602 20.7559 14.6406 21.3027C14.1302 21.8496 13.515 22.123 12.7949 22.123C12.3118 22.123 11.9154 22.0547 11.6055 21.918C11.2956 21.7721 10.9766 21.6309 10.6484 21.4941C10.3203 21.3483 9.87826 21.2754 9.32227 21.2754C8.78451 21.2754 8.33333 21.3483 7.96875 21.4941C7.61328 21.64 7.27148 21.7858 6.94336 21.9316C6.62435 22.0775 6.24609 22.1504 5.80859 22.1504C5.14323 22.1504 4.5599 21.8861 4.05859 21.3574C3.55729 20.8288 3.04232 20.1953 2.51367 19.457C1.90299 18.582 1.37891 17.5156 0.941406 16.2578C0.513021 14.9909 0.298828 13.7148 0.298828 12.4297C0.298828 11.0534 0.558594 9.90039 1.07812 8.9707C1.59766 8.0319 2.26302 7.32552 3.07422 6.85156C3.89453 6.36849 4.74219 6.12695 5.61719 6.12695C6.08203 6.12695 6.51953 6.20443 6.92969 6.35938C7.33984 6.50521 7.72266 6.6556 8.07812 6.81055C8.44271 6.96549 8.77083 7.04297 9.0625 7.04297C9.34505 7.04297 9.67318 6.96094 10.0469 6.79688C10.4206 6.63281 10.8398 6.47331 11.3047 6.31836C11.7695 6.1543 12.2663 6.07227 12.7949 6.07227ZM12.043 4.33594C11.6875 4.76432 11.2409 5.12435 10.7031 5.41602C10.1654 5.69857 9.65495 5.83984 9.17188 5.83984C9.07161 5.83984 8.97591 5.83073 8.88477 5.8125C8.87565 5.78516 8.86654 5.73503 8.85742 5.66211C8.84831 5.58919 8.84375 5.51172 8.84375 5.42969C8.84375 4.88281 8.96224 4.35417 9.19922 3.84375C9.4362 3.32422 9.70508 2.89583 10.0059 2.55859C10.3887 2.10286 10.8717 1.72461 11.4551 1.42383C12.0384 1.12305 12.5944 0.963542 13.123 0.945312C13.1504 1.0638 13.1641 1.20508 13.1641 1.36914C13.1641 1.91602 13.0592 2.44922 12.8496 2.96875C12.64 3.47917 12.3711 3.9349 12.043 4.33594ZM22.7457 15.2598V12.6895H27.8043C29.1259 12.6895 30.1513 12.3477 30.8805 11.6641C31.6187 10.9714 31.9879 10.0143 31.9879 8.79297V8.76562C31.9879 7.52604 31.6187 6.56445 30.8805 5.88086C30.1513 5.19727 29.1259 4.85547 27.8043 4.85547H22.7457V2.27148H28.5699C29.8642 2.27148 30.999 2.54492 31.9742 3.0918C32.9586 3.62956 33.7288 4.38607 34.2848 5.36133C34.8408 6.32747 35.1187 7.45312 35.1187 8.73828V8.76562C35.1187 10.0508 34.8408 11.1855 34.2848 12.1699C33.7288 13.1452 32.9586 13.9062 31.9742 14.4531C30.999 14.9909 29.8642 15.2598 28.5699 15.2598H22.7457ZM21.2145 22V2.27148H24.277V22H21.2145ZM41.4602 22.2598C40.5031 22.2598 39.6646 22.0775 38.9445 21.7129C38.2245 21.3483 37.6639 20.8379 37.2629 20.1816C36.8618 19.5254 36.6613 18.7689 36.6613 17.9121V17.8848C36.6613 17.0462 36.871 16.3262 37.2902 15.7246C37.7095 15.1139 38.3156 14.6309 39.1086 14.2754C39.9107 13.9199 40.8768 13.7103 42.007 13.6465L47.4484 13.3184V15.3965L42.4035 15.7109C41.5194 15.7656 40.8358 15.9798 40.3527 16.3535C39.8788 16.7181 39.6418 17.2057 39.6418 17.8164V17.8438C39.6418 18.4727 39.8788 18.9694 40.3527 19.334C40.8358 19.6986 41.4738 19.8809 42.2668 19.8809C42.9595 19.8809 43.5793 19.7396 44.1262 19.457C44.6822 19.1745 45.1197 18.7871 45.4387 18.2949C45.7577 17.7936 45.9172 17.2331 45.9172 16.6133V12.334C45.9172 11.541 45.6711 10.9212 45.1789 10.4746C44.6867 10.0189 43.9803 9.79102 43.0598 9.79102C42.2121 9.79102 41.5285 9.97331 41.009 10.3379C40.4986 10.7025 40.1796 11.1719 40.052 11.7461L40.0246 11.8691H37.2355L37.2492 11.7188C37.3221 10.8893 37.6001 10.1465 38.0832 9.49023C38.5663 8.82487 39.2362 8.30078 40.093 7.91797C40.9497 7.53516 41.966 7.34375 43.1418 7.34375C44.3176 7.34375 45.3339 7.53971 46.1906 7.93164C47.0474 8.32357 47.7128 8.875 48.1867 9.58594C48.6607 10.2969 48.8977 11.1309 48.8977 12.0879V22H45.9172V19.7305H45.8625C45.5799 20.25 45.2154 20.7012 44.7687 21.084C44.3221 21.4577 43.8163 21.7493 43.2512 21.959C42.6952 22.1595 42.0982 22.2598 41.4602 22.2598ZM54.323 26.7988C54.0405 26.7988 53.7579 26.7852 53.4754 26.7578C53.1928 26.7305 52.9604 26.6986 52.7781 26.6621V24.3516C52.8875 24.3698 53.0242 24.388 53.1883 24.4062C53.3615 24.4336 53.5483 24.4473 53.7488 24.4473C54.4507 24.4473 55.0066 24.3288 55.4168 24.0918C55.8361 23.8548 56.1642 23.39 56.4012 22.6973L56.6473 22.0137L51.4109 7.61719H54.6238L58.4383 19.9629L57.9188 19.3203H58.6434L58.1238 19.9629L61.952 7.61719H65.0828L59.7234 22.6562C59.368 23.6497 58.9487 24.4518 58.4656 25.0625C57.9917 25.6732 57.4174 26.1152 56.743 26.3887C56.0776 26.6621 55.271 26.7988 54.323 26.7988Z" fill="black"/>
</svg>
