<svg width="17" height="19" viewBox="0 0 17 19" fill="none" xmlns="http://www.w3.org/2000/svg">
<path d="M9.06445 18.1377V9.62109L16.8506 5.17188C16.8949 5.33789 16.917 5.54818 16.917 5.80273V12.269C16.917 12.8722 16.8146 13.3177 16.6099 13.6055C16.4106 13.8877 16.1174 14.1395 15.73 14.3608L9.23047 18.063C9.2028 18.0796 9.17513 18.0934 9.14746 18.1045C9.11979 18.1211 9.09212 18.1322 9.06445 18.1377ZM7.92725 18.1377C7.89958 18.1322 7.87191 18.1211 7.84424 18.1045C7.8221 18.0934 7.7972 18.0796 7.76953 18.063L1.26172 14.3608C0.879883 14.1395 0.586589 13.8877 0.381836 13.6055C0.177083 13.3177 0.074707 12.8722 0.074707 12.269V5.80273C0.074707 5.54818 0.0968424 5.33789 0.141113 5.17188L7.92725 9.62109V18.1377ZM8.5 8.625L0.672363 4.18408C0.794108 4.0734 0.949056 3.96549 1.13721 3.86035L4.18359 2.12549L12.0444 6.61621L8.5 8.625ZM13.1982 5.96045L5.3042 1.47803L6.98926 0.523438C7.50391 0.224609 8.00749 0.0751953 8.5 0.0751953C8.98698 0.0751953 9.48779 0.224609 10.0024 0.523438L15.8628 3.86035C16.0454 3.96549 16.1976 4.0734 16.3193 4.18408L13.1982 5.96045Z" fill="black"/>
</svg>
