<svg width="14" height="16" viewBox="0 0 14 16" fill="none" xmlns="http://www.w3.org/2000/svg">
<path d="M1.43018 15.6104C0.987467 15.6104 0.638835 15.5107 0.384277 15.3115C0.135254 15.1178 0.0107422 14.8494 0.0107422 14.5063C0.0107422 13.9751 0.171224 13.4134 0.492188 12.8213C0.813151 12.2292 1.27799 11.6758 1.88672 11.1611C2.49544 10.641 3.22868 10.2204 4.08643 9.89941C4.94971 9.57292 5.91813 9.40967 6.9917 9.40967C8.0708 9.40967 9.03923 9.57292 9.89697 9.89941C10.7603 10.2204 11.4935 10.641 12.0967 11.1611C12.7054 11.6758 13.1702 12.2292 13.4912 12.8213C13.8177 13.4134 13.981 13.9751 13.981 14.5063C13.981 14.8494 13.8537 15.1178 13.5991 15.3115C13.3501 15.5107 13.0042 15.6104 12.5615 15.6104H1.43018ZM7 7.92383C6.40788 7.92383 5.86003 7.76335 5.35645 7.44238C4.85286 7.11589 4.44613 6.67871 4.13623 6.13086C3.83187 5.57747 3.67969 4.95768 3.67969 4.27148C3.67969 3.59635 3.83187 2.98763 4.13623 2.44531C4.44613 1.90299 4.85286 1.47412 5.35645 1.15869C5.86003 0.843262 6.40788 0.685547 7 0.685547C7.59212 0.685547 8.13997 0.840495 8.64355 1.15039C9.14714 1.46029 9.55111 1.88639 9.85547 2.42871C10.1654 2.96549 10.3203 3.57422 10.3203 4.25488C10.3203 4.94661 10.1654 5.56917 9.85547 6.12256C9.55111 6.67594 9.14714 7.11589 8.64355 7.44238C8.13997 7.76335 7.59212 7.92383 7 7.92383Z" fill="black"/>
</svg>
