<svg width="30" height="31" viewBox="0 0 30 31" fill="none" xmlns="http://www.w3.org/2000/svg">
<rect y="0.5" width="30" height="30" rx="10" fill="url(#paint0_linear_168_17308)"/>
<path d="M12.3333 15.5C12.3333 15.8682 12.0349 16.1667 11.6667 16.1667C11.2985 16.1667 11 15.8682 11 15.5C11 15.1318 11.2985 14.8334 11.6667 14.8334C12.0349 14.8334 12.3333 15.1318 12.3333 15.5Z" fill="#0284AD"/>
<path d="M13.3333 16.1667C13.7015 16.1667 14 15.8682 14 15.5C14 15.1318 13.7015 14.8334 13.3333 14.8334C12.9651 14.8334 12.6667 15.1318 12.6667 15.5C12.6667 15.8682 12.9651 16.1667 13.3333 16.1667Z" fill="#0284AD"/>
<path d="M15.6667 15.5C15.6667 15.8682 15.3682 16.1667 15 16.1667C14.6318 16.1667 14.3333 15.8682 14.3333 15.5C14.3333 15.1318 14.6318 14.8334 15 14.8334C15.3682 14.8334 15.6667 15.1318 15.6667 15.5Z" fill="#0284AD"/>
<path fill-rule="evenodd" clip-rule="evenodd" d="M12.6667 8.83335C12.6667 8.46516 12.9651 8.16669 13.3333 8.16669H15.3333C15.7015 8.16669 16 8.46516 16 8.83335C16 9.03912 16.2681 9.50002 17 9.50002C17.7319 9.50002 18 9.03912 18 8.83335C18 8.46516 18.2985 8.16669 18.6667 8.16669H20.6667C21.0349 8.16669 21.3333 8.46516 21.3333 8.83335V18.8334C21.3333 19.2015 21.0349 19.5 20.6667 19.5H18.6667C18.2985 19.5 18 19.2015 18 18.8334C18 18.6914 17.9064 18.4766 17.6667 18.3294V22.1667C17.6667 22.5349 17.3682 22.8334 17 22.8334H15C14.6318 22.8334 14.3333 22.5349 14.3333 22.1667C14.3333 21.9326 14.0787 21.5 13.3333 21.5C12.588 21.5 12.3333 21.9326 12.3333 22.1667C12.3333 22.5349 12.0349 22.8334 11.6667 22.8334H9.66667C9.29848 22.8334 9 22.5349 9 22.1667V12.1667C9 11.7985 9.29848 11.5 9.66667 11.5H11.6667C12.0349 11.5 12.3333 11.7985 12.3333 12.1667C12.3333 12.2904 12.4303 12.5064 12.6667 12.6589V8.83335ZM19.2087 18.1667C18.9635 17.5425 18.3796 17.0888 17.6667 16.9133V12.1667C17.6667 11.7985 17.3682 11.5 17 11.5H15C14.6318 11.5 14.3333 11.7985 14.3333 12.1667C14.3333 12.2904 14.2364 12.5064 14 12.6589V9.50002H14.7979C15.1199 10.2869 15.9964 10.8334 17 10.8334C18.0036 10.8334 18.8801 10.2869 19.2021 9.50002H20V18.1667H19.2087ZM15.5355 12.8334C15.2135 13.6202 14.3369 14.1667 13.3333 14.1667C12.3298 14.1667 11.4532 13.6202 11.1312 12.8334H10.3333V21.5H11.1246C11.4429 20.6897 12.3321 20.1667 13.3333 20.1667C14.3346 20.1667 15.2237 20.6897 15.5421 21.5H16.3333V12.8334H15.5355Z" fill="#0284AD"/>
<defs>
<linearGradient id="paint0_linear_168_17308" x1="14.9521" y1="0.5" x2="22.4521" y2="30.5" gradientUnits="userSpaceOnUse">
<stop stop-color="#E6F5FF"/>
<stop offset="1" stop-color="#EBECFF"/>
</linearGradient>
</defs>
</svg>
