<svg width="16" height="16" viewBox="0 0 16 16" fill="none" xmlns="http://www.w3.org/2000/svg">
<g clip-path="url(#clip0_168_17329)">
<path d="M2 4.42105C2 4.83527 2.33579 5.17105 2.75 5.17105C3.16421 5.17105 3.5 4.83527 3.5 4.42105H2ZM3.5 1C3.5 0.585786 3.16421 0.25 2.75 0.25C2.33579 0.25 2 0.585786 2 1H3.5ZM1 1.96053C0.585786 1.96053 0.25 2.29631 0.25 2.71053C0.25 3.12474 0.585786 3.46053 1 3.46053V1.96053ZM4.5 3.46053C4.91421 3.46053 5.25 3.12474 5.25 2.71053C5.25 2.29631 4.91421 1.96053 4.5 1.96053V3.46053ZM8.7 1.68421L9.39791 1.40959C9.28505 1.12278 9.00822 0.934211 8.7 0.934211C8.39178 0.934211 8.11494 1.12278 8.00209 1.40959L8.7 1.68421ZM15 7.84211L15.2639 8.54414C15.5563 8.4342 15.75 8.15451 15.75 7.84211C15.75 7.5297 15.5563 7.25001 15.2639 7.14008L15 7.84211ZM8.7 14L8.00209 14.2746C8.11495 14.5614 8.39178 14.75 8.7 14.75C9.00822 14.75 9.28506 14.5614 9.39791 14.2746L8.7 14ZM2.4 7.84211L2.13608 7.14008C1.84365 7.25001 1.65 7.5297 1.65 7.84211C1.65 8.15451 1.84365 8.4342 2.13608 8.54414L2.4 7.84211ZM11.8438 9.02865L12.1077 9.73068V9.73068L11.8438 9.02865ZM10.858 9.46811L10.43 8.85225L10.858 9.46811ZM9.91393 10.915L9.21601 10.6404L9.91393 10.915ZM10.3635 9.95147L9.75703 9.51026L10.3635 9.95147ZM9.91392 4.76922L10.6118 4.4946L9.91392 4.76922ZM10.3635 5.73274L10.97 5.29154L10.3635 5.73274ZM11.8438 6.65556L12.1077 5.95353L11.8438 6.65556ZM10.858 6.2161L10.43 6.83196L10.858 6.2161ZM5.5562 6.65556L5.29228 5.95353H5.29228L5.5562 6.65556ZM6.54196 6.2161L6.97 6.83196L6.54196 6.2161ZM7.48607 4.76922L6.78816 4.4946L7.48607 4.76922ZM7.03647 5.73274L7.64297 6.17395L7.03647 5.73274ZM7.48608 10.915L6.78816 11.1896L7.48608 10.915ZM7.03647 9.95147L6.42998 10.3927L7.03647 9.95147ZM5.5562 9.02865L5.29228 9.73068L5.5562 9.02865ZM6.54196 9.46811L6.97 8.85225L6.54196 9.46811ZM1.17197 13.7674C0.879075 14.0603 0.879075 14.5352 1.17197 14.8281C1.46486 15.121 1.93974 15.121 2.23263 14.8281L1.17197 13.7674ZM4.67269 12.388C4.96558 12.0951 4.96558 11.6202 4.67269 11.3273C4.3798 11.0344 3.90492 11.0344 3.61203 11.3273L4.67269 12.388ZM2.23263 11.3273C1.93974 11.0344 1.46486 11.0344 1.17197 11.3273C0.879075 11.6202 0.879075 12.0951 1.17197 12.388L2.23263 11.3273ZM3.61203 14.8281C3.90492 15.121 4.3798 15.121 4.67269 14.8281C4.96558 14.5352 4.96558 14.0603 4.67269 13.7674L3.61203 14.8281ZM3.5 4.42105V1H2V4.42105H3.5ZM1 3.46053H4.5V1.96053H1V3.46053ZM9.39791 13.7254L8.18399 10.6404L6.78816 11.1896L8.00209 14.2746L9.39791 13.7254ZM5.82012 8.32662L2.66392 7.14008L2.13608 8.54414L5.29228 9.73068L5.82012 8.32662ZM2.66392 8.54414L5.82012 7.35759L5.29228 5.95353L2.13608 7.14008L2.66392 8.54414ZM8.18399 5.04384L9.39791 1.95883L8.00209 1.40959L6.78816 4.4946L8.18399 5.04384ZM8.00209 1.95883L9.21601 5.04384L10.6118 4.4946L9.39791 1.40959L8.00209 1.95883ZM11.5799 7.35759L14.7361 8.54414L15.2639 7.14008L12.1077 5.95353L11.5799 7.35759ZM14.7361 7.14008L11.5799 8.32662L12.1077 9.73068L15.2639 8.54414L14.7361 7.14008ZM9.21601 10.6404L8.00209 13.7254L9.39791 14.2746L10.6118 11.1896L9.21601 10.6404ZM11.5799 8.32662C11.1024 8.50613 10.7405 8.63644 10.43 8.85225L11.2861 10.084C11.4073 9.99973 11.5587 9.93708 12.1077 9.73068L11.5799 8.32662ZM10.6118 11.1896C10.8234 10.652 10.886 10.5082 10.97 10.3927L9.75703 9.51026C9.53409 9.81673 9.39928 10.1746 9.21601 10.6404L10.6118 11.1896ZM10.43 8.85225C10.1704 9.03269 9.94276 9.25496 9.75703 9.51026L10.97 10.3927C11.0564 10.274 11.1631 10.1695 11.2861 10.084L10.43 8.85225ZM9.21601 5.04384C9.39928 5.50959 9.53409 5.86748 9.75703 6.17395L10.97 5.29154C10.886 5.17602 10.8234 5.03222 10.6118 4.4946L9.21601 5.04384ZM12.1077 5.95353C11.5587 5.74713 11.4073 5.68448 11.2861 5.60024L10.43 6.83196C10.7405 7.04778 11.1024 7.17808 11.5799 7.35759L12.1077 5.95353ZM9.75703 6.17395C9.94276 6.42925 10.1704 6.65152 10.43 6.83196L11.2861 5.60024C11.1631 5.51474 11.0564 5.41024 10.97 5.29154L9.75703 6.17395ZM5.82012 7.35759C6.29762 7.17808 6.65948 7.04778 6.97 6.83196L6.11392 5.60024C5.99271 5.68448 5.84131 5.74713 5.29228 5.95353L5.82012 7.35759ZM6.78816 4.4946C6.57662 5.03221 6.51401 5.17602 6.42997 5.29154L7.64297 6.17395C7.86591 5.86748 8.00072 5.5096 8.18399 5.04384L6.78816 4.4946ZM6.97 6.83196C7.22962 6.65152 7.45724 6.42925 7.64297 6.17395L6.42997 5.29154C6.34362 5.41024 6.23694 5.51474 6.11392 5.60024L6.97 6.83196ZM8.18399 10.6404C8.00072 10.1746 7.86591 9.81673 7.64297 9.51026L6.42998 10.3927C6.51401 10.5082 6.57661 10.652 6.78816 11.1896L8.18399 10.6404ZM5.29228 9.73068C5.84131 9.93708 5.99271 9.99973 6.11392 10.084L6.97 8.85225C6.65948 8.63644 6.29762 8.50613 5.82012 8.32662L5.29228 9.73068ZM7.64297 9.51026C7.45724 9.25496 7.22961 9.03269 6.97 8.85225L6.11392 10.084C6.23694 10.1695 6.34362 10.274 6.42998 10.3927L7.64297 9.51026ZM2.23263 14.8281L3.45266 13.608L2.392 12.5474L1.17197 13.7674L2.23263 14.8281ZM3.45266 13.608L4.67269 12.388L3.61203 11.3273L2.392 12.5474L3.45266 13.608ZM1.17197 12.388L2.392 13.608L3.45266 12.5474L2.23263 11.3273L1.17197 12.388ZM2.392 13.608L3.61203 14.8281L4.67269 13.7674L3.45266 12.5474L2.392 13.608Z" fill="#0284AD"/>
</g>
<defs>
<clipPath id="clip0_168_17329">
<rect width="16" height="16" fill="white"/>
</clipPath>
</defs>
</svg>
