<svg width="12" height="11" viewBox="0 0 12 11" fill="none" xmlns="http://www.w3.org/2000/svg">
<path fill-rule="evenodd" clip-rule="evenodd" d="M4 0.5C4.27614 0.5 4.5 0.723858 4.5 1V1.25H7.5V1C7.5 0.723858 7.72386 0.5 8 0.5C8.27614 0.5 8.5 0.723858 8.5 1V1.25H10.25C10.8023 1.25 11.25 1.69772 11.25 2.25V10C11.25 10.5523 10.8023 11 10.25 11H1.75C1.19772 11 0.75 10.5523 0.75 10V2.25C0.75 1.69772 1.19772 1.25 1.75 1.25H3.5V1C3.5 0.723858 3.72386 0.5 4 0.5ZM3.5 2.25H1.75V4.25H10.25V2.25H8.5V3C8.5 3.27614 8.27614 3.5 8 3.5C7.72386 3.5 7.5 3.27614 7.5 3V2.25H4.5V3C4.5 3.27614 4.27614 3.5 4 3.5C3.72386 3.5 3.5 3.27614 3.5 3V2.25ZM10.25 5.25H1.75V10H10.25V5.25ZM3 6.5C3 6.22386 3.22386 6 3.5 6H5C5.27614 6 5.5 6.22386 5.5 6.5C5.5 6.77614 5.27614 7 5 7H3.5C3.22386 7 3 6.77614 3 6.5ZM6.5 6.5C6.5 6.22386 6.72386 6 7 6H8.5C8.77614 6 9 6.22386 9 6.5C9 6.77614 8.77614 7 8.5 7H7C6.72386 7 6.5 6.77614 6.5 6.5ZM3 8.5C3 8.22386 3.22386 8 3.5 8H5C5.27614 8 5.5 8.22386 5.5 8.5C5.5 8.77614 5.27614 9 5 9H3.5C3.22386 9 3 8.77614 3 8.5ZM6.5 8.5C6.5 8.22386 6.72386 8 7 8H8.5C8.77614 8 9 8.22386 9 8.5C9 8.77614 8.77614 9 8.5 9H7C6.72386 9 6.5 8.77614 6.5 8.5Z" fill="#A0B6C3"/>
</svg>
