<svg width="44" height="44" viewBox="0 0 44 44" fill="none" xmlns="http://www.w3.org/2000/svg">
<circle cx="22" cy="22" r="22" fill="white" fill-opacity="0.4"/>
<path d="M26.7076 17.2924C26.5203 17.1052 26.2663 17 26.0014 17C25.7366 17 25.4826 17.1052 25.2953 17.2924L22.0062 20.5815L18.7172 17.2924C18.5288 17.1105 18.2765 17.0098 18.0147 17.0121C17.7528 17.0144 17.5023 17.1194 17.3171 17.3046C17.1319 17.4898 17.0269 17.7403 17.0246 18.0022C17.0223 18.2641 17.123 18.5164 17.3049 18.7047L20.5939 21.9938L17.3049 25.2828C17.2095 25.3749 17.1334 25.4851 17.0811 25.607C17.0287 25.7288 17.0012 25.8599 17 25.9925C16.9989 26.1251 17.0242 26.2567 17.0744 26.3794C17.1246 26.5022 17.1988 26.6137 17.2925 26.7075C17.3863 26.8012 17.4978 26.8754 17.6206 26.9256C17.7433 26.9758 17.8749 27.0011 18.0075 27C18.1401 26.9988 18.2712 26.9713 18.393 26.9189C18.5149 26.8666 18.6251 26.7905 18.7172 26.6951L22.0062 23.4061L25.2953 26.6951C25.4836 26.877 25.7359 26.9777 25.9978 26.9754C26.2597 26.9731 26.5102 26.8681 26.6954 26.6829C26.8806 26.4977 26.9856 26.2472 26.9879 25.9853C26.9902 25.7235 26.8895 25.4712 26.7076 25.2828L23.4185 21.9938L26.7076 18.7047C26.8948 18.5174 27 18.2634 27 17.9986C27 17.7337 26.8948 17.4797 26.7076 17.2924Z" fill="#383F47"/>
</svg>
