<svg width="390" height="744" viewBox="0 0 390 744" fill="none" xmlns="http://www.w3.org/2000/svg">
<g clip-path="url(#clip0_168_20406)">
<path d="M150.169 10.878C152.731 14.0704 157.106 14.9769 160.613 13.1245C161.244 14.4842 161.855 15.8636 162.485 17.2233C157.027 19.4304 150.839 17.4598 147.726 12.6121C148.534 12.0407 149.361 11.4495 150.189 10.878H150.169Z" fill="#F2BD24"/>
<path d="M133.728 60.4949L130.093 61.3925L130.873 64.5492L134.508 63.6516L133.728 60.4949Z" fill="#2DD7A7"/>
<path d="M202.192 -0.831671C202.547 -8.87171 208.144 -14.1332 213.307 -14.7835C212.794 -13.1282 212.834 -11.532 213.208 -10.2117C209.365 -8.8323 205.7 -3.15698 207.986 3.87806C205.838 2.79423 203.848 1.21775 202.192 -0.831671Z" fill="#EB5A29"/>
<path d="M379.694 -5.0385L376.436 6.55267L386.471 9.37354L389.729 -2.21764L379.694 -5.0385Z" fill="#2DD7A7"/>
<path d="M26.1262 97.9516L23.4238 109.482L46.5239 114.896L49.2263 103.365L26.1262 97.9516Z" fill="#F2BD24"/>
<path d="M11.4851 101.3L6.82178 103.943L7.70591 105.503L12.3692 102.86L11.4851 101.3Z" fill="#2DD7A7"/>
<path d="M104.688 132.383C106.205 121.407 114.521 114.924 121.655 114.667C120.748 116.875 120.59 119.042 120.945 120.914C115.506 122.333 109.792 129.624 111.999 139.556C109.181 137.822 106.658 135.398 104.668 132.383H104.688Z" fill="white"/>
<path d="M31.7561 246.266C22.6322 254.779 10.7495 254.542 4.30566 249.675C6.67038 248.375 8.3454 246.601 9.37011 244.709C15.144 247.35 25.332 245.025 30.4358 234.777C31.6576 238.305 32.1502 242.226 31.7364 246.266H31.7561Z" fill="#EB5A29"/>
<path d="M122.815 107.625L111.386 115.523L126.142 136.873L137.571 128.974L122.815 107.625Z" fill="#4CA3FF"/>
<path d="M188.655 26.2663C186.822 20.4925 181.245 16.8863 175.392 17.5957C175.274 15.3689 175.136 13.1421 175.018 10.9153C183.748 10.7774 191.256 16.8074 192.97 25.1825C191.532 25.5372 190.093 25.9116 188.655 26.2663Z" fill="#4CA3FF"/>
<path d="M184.437 196.151C182.723 196.151 181.265 197.334 180.93 198.949C180.319 198.792 179.708 198.634 179.097 198.477C179.826 196.112 182.112 194.614 184.516 194.89C184.497 195.304 184.457 195.737 184.437 196.151Z" fill="#F2BD24"/>
<path d="M157.362 27.0942C157.618 28.4342 158.8 29.3998 160.121 29.38C160.101 29.8727 160.062 30.3851 160.042 30.8974C158.071 30.7004 156.534 29.1633 156.357 27.2321C156.692 27.1927 157.027 27.1533 157.362 27.0942Z" fill="white"/>
<path d="M183.22 32.133L171.367 36.203L179.519 59.9478L191.373 55.8778L183.22 32.133Z" fill="#F2BD24"/>
<path d="M129.176 82.431L111.75 91.1575L116.109 99.8619L133.535 91.1354L129.176 82.431Z" fill="#2DD7A7"/>
<path d="M134.204 151.64L128.724 156.973L139.389 167.932L144.868 162.6L134.204 151.64Z" fill="#2DD7A7"/>
<path d="M93.5904 192.567L92.1279 205.054L98.3714 205.785L99.8339 193.298L93.5904 192.567Z" fill="white"/>
<path d="M240.761 104.507L227.711 111.693L230.106 116.043L243.156 108.857L240.761 104.507Z" fill="#2DD7A7"/>
<path d="M195.441 227.224L193.816 228.154L194.893 230.035L196.518 229.105L195.441 227.224Z" fill="#2DD7A7"/>
<path d="M252.384 90.8638C253.113 82.9026 258.906 77.9564 264.05 77.5229C263.478 79.1585 263.439 80.7153 263.754 82.0553C259.872 83.2573 255.99 88.7159 257.901 95.7903C255.813 94.6277 253.901 92.9527 252.384 90.8638Z" fill="white"/>
<path d="M234.905 258.247C233.663 249.911 238.353 243.388 243.516 241.674C243.339 243.487 243.674 245.103 244.344 246.384C240.659 248.591 238.058 255.133 241.802 261.912C239.378 261.242 237.013 260.02 234.905 258.247Z" fill="#EB5A29"/>
<path d="M243.849 163.143L239.411 170.083L252.211 178.268L256.649 171.329L243.849 163.143Z" fill="white"/>
<path d="M51.7685 42.6617L39.8867 52.7204L45.3362 59.1576L57.218 49.0989L51.7685 42.6617Z" fill="#EB5A29"/>
<path d="M294.778 166.011L294.184 171.496L297.122 171.815L297.716 166.329L294.778 166.011Z" fill="#4CA3FF"/>
<path d="M410.445 73.2663C398.385 69.1675 385.3 74.094 379.211 84.8535C375.29 82.2917 371.368 79.7299 367.447 77.1681C378.127 62.2507 397.695 57.0483 414.012 64.5957C412.83 67.4925 411.628 70.3696 410.445 73.2663Z" fill="#4CA3FF"/>
<path d="M327.838 131.161C323.109 132.738 320.192 137.388 320.862 142.177C319.03 142.315 317.197 142.433 315.364 142.571C315.148 135.378 320.015 129.132 326.892 127.614C327.208 128.797 327.523 129.979 327.838 131.161Z" fill="#F2BD24"/>
<path d="M347.15 78.0754C347.564 78.7651 348.411 79.041 349.141 78.7652C349.219 79.041 349.318 79.3366 349.397 79.6125C348.273 79.9081 347.111 79.376 346.618 78.3513C346.796 78.2528 346.973 78.174 347.131 78.0754H347.15Z" fill="white"/>
<path d="M372.886 70.994L365.603 80.0818L370.139 83.7173L377.422 74.6295L372.886 70.994Z" fill="#F2BD24"/>
<path d="M236.621 46.7207L230.164 54.7029L244.872 66.6005L251.329 58.6183L236.621 46.7207Z" fill="#EB5A29"/>
<path d="M41.5104 214.874C42.8307 210.204 40.7024 205.317 36.4854 203.208C37.3918 201.671 38.2786 200.114 39.1851 198.577C45.0771 202.341 47.4418 209.691 44.8801 216.056C43.7568 215.662 42.6336 215.268 41.5104 214.874Z" fill="#4CA3FF"/>
<path d="M51.1872 250.611L46.2139 260.617L66.2424 270.572L71.2157 260.567L51.1872 250.611Z" fill="#F2BD24"/>
<path d="M14.1316 276.853L-3.979 309.284L6.82582 315.318L24.9364 282.886L14.1316 276.853Z" fill="#2DD7A7"/>
<path d="M46.8306 277.44C47.4217 272.376 51.2053 269.322 54.4962 269.144C54.102 270.169 54.043 271.174 54.2203 272.021C51.7374 272.711 49.1559 276.12 50.2791 280.672C48.9785 279.884 47.7765 278.8 46.8306 277.44Z" fill="white"/>
<path d="M6.53186 457.966C2.84684 452.291 4.08829 445.965 7.30036 442.97C7.7733 444.349 8.56155 445.433 9.46803 446.142C7.51714 448.98 7.79303 454.636 12.7983 458.34C10.808 458.656 8.6601 458.557 6.53186 457.946V457.966Z" fill="#EB5A29"/>
<path d="M134.688 349.068L122.045 370.78L133.677 377.553L146.319 355.84L134.688 349.068Z" fill="#4CA3FF"/>
<path d="M204.695 259.016C203.69 253.104 198.705 248.789 192.892 248.671C193.069 246.464 193.246 244.276 193.443 242.069C202.015 243.153 208.558 250.089 209.09 258.543C207.632 258.701 206.154 258.859 204.695 259.016Z" fill="#4CA3FF"/>
<path d="M152.474 348.342C151.213 348.342 150.149 349.229 149.932 350.45C149.479 350.332 149.026 350.234 148.572 350.115C149.085 348.362 150.76 347.258 152.533 347.416C152.533 347.731 152.494 348.027 152.474 348.342Z" fill="#F2BD24"/>
<path d="M144.494 222.636C146.977 224.528 150.386 224.41 152.632 222.38C153.342 223.287 154.051 224.174 154.761 225.08C151.115 227.701 146.169 227.386 142.977 224.351C143.469 223.779 143.982 223.188 144.474 222.617L144.494 222.636Z" fill="white"/>
<path d="M188.589 260.284L188.09 263.935L195.412 264.935L195.91 261.284L188.589 260.284Z" fill="#F2BD24"/>
<path d="M131.41 264.179L128.564 273.612L147.468 279.316L150.314 269.883L131.41 264.179Z" fill="#2DD7A7"/>
<path d="M236.084 393.505L232.617 393.618L232.842 400.551L236.309 400.438L236.084 393.505Z" fill="#2DD7A7"/>
<path d="M45.108 404.469L40.2871 421.106L48.5962 423.514L53.4172 406.876L45.108 404.469Z" fill="white"/>
<path d="M178.094 286.302L153.252 300.14L157.865 308.421L182.707 294.583L178.094 286.302Z" fill="#2DD7A7"/>
<path d="M119.521 470.239L106.678 471.873L108.565 486.71L121.409 485.076L119.521 470.239Z" fill="#2DD7A7"/>
<path d="M270.414 326.724C271.596 317.423 278.572 311.865 284.622 311.57C283.873 313.442 283.775 315.294 284.09 316.871C279.499 318.112 274.71 324.339 276.681 332.734C274.296 331.276 272.128 329.266 270.414 326.724Z" fill="white"/>
<path d="M272.838 449.59C265.744 442.102 265.862 432.269 269.862 426.909C270.946 428.859 272.444 430.239 274 431.067C271.852 435.855 273.823 444.27 282.336 448.447C279.42 449.472 276.188 449.905 272.838 449.59Z" fill="#EB5A29"/>
<path d="M284.234 315.423L275.602 316.426L277.45 332.32L286.082 331.317L284.234 315.423Z" fill="white"/>
<path d="M79.2131 258.898L59.8584 267.796L64.682 278.288L84.0367 269.39L79.2131 258.898Z" fill="#EB5A29"/>
<path d="M288.574 317.879L260.587 338.596L271.678 353.58L299.665 332.863L288.574 317.879Z" fill="#4CA3FF"/>
<path d="M358.559 392.444C359.229 393.626 360.609 394.178 361.85 393.764C361.969 394.237 362.107 394.73 362.225 395.203C360.313 395.616 358.402 394.631 357.633 392.877C357.929 392.739 358.225 392.582 358.54 392.444H358.559Z" fill="#F2BD24"/>
<path d="M362.146 181.63C364.688 185.966 369.871 187.838 374.443 186.202C374.955 187.976 375.468 189.749 375.98 191.523C368.965 193.237 361.792 189.749 358.855 183.305C359.959 182.754 361.043 182.202 362.146 181.63Z" fill="white"/>
<path d="M400.837 258.094L380.576 274.689L388.867 284.812L409.128 268.217L400.837 258.094Z" fill="#F2BD24"/>
<path d="M388.627 390.81L388.208 397.043L391.315 397.252L391.734 391.019L388.627 390.81Z" fill="#2DD7A7"/>
<path d="M351.874 433.632L348.357 442.349L355.886 445.386L359.403 436.669L351.874 433.632Z" fill="#2DD7A7"/>
<path d="M271.161 307.172L258.313 307.897L258.706 314.862L271.554 314.137L271.161 307.172Z" fill="#EB5A29"/>
<path d="M70.8527 412.19C65.0789 411.323 59.6007 414.633 57.7286 419.993C55.7383 419.166 53.7676 418.338 51.7773 417.491C55.3638 409.884 63.7586 405.923 71.7395 407.993C71.4439 409.392 71.1483 410.791 70.8527 412.19Z" fill="#4CA3FF"/>
<path d="M21.7233 491.167L19.1973 498.007L32.8951 503.066L35.4211 496.226L21.7233 491.167Z" fill="#F2BD24"/>
<path d="M27.2523 587.351L22.9316 588.653L25.5414 597.313L29.8621 596.011L27.2523 587.351Z" fill="#2DD7A7"/>
<path d="M37.7711 565.797L29.4111 592.604L38.347 595.391L46.707 568.583L37.7711 565.797Z" fill="#2DD7A7"/>
<path d="M21.489 540.711C25.5287 527.37 37.1355 520.965 46.0623 522.049C44.5056 524.63 43.8749 527.291 43.9538 529.675C36.9187 530.365 28.3663 538.306 29.1743 551.076C26.0213 548.357 23.361 544.849 21.4692 540.73L21.489 540.711Z" fill="white"/>
<path d="M42.6527 656.781C52.9392 656.544 60.1122 663.185 61.3931 669.708C59.2255 669.215 57.2155 669.393 55.5602 669.984C53.4516 665.195 45.9239 661.037 37.1548 664.545C38.3371 661.707 40.1895 659.027 42.633 656.761L42.6527 656.781Z" fill="#EB5A29"/>
<path d="M87.6071 482.723L84.084 491.988L101.38 498.565L104.903 489.3L87.6071 482.723Z" fill="#4CA3FF"/>
<path d="M260.404 406.455C255.557 395.479 243.772 389.567 232.422 392.208C231.693 387.853 230.963 383.498 230.234 379.143C247.398 377.014 263.498 387.262 268.681 403.381C265.922 404.406 263.163 405.43 260.385 406.455H260.404Z" fill="#4CA3FF"/>
<path d="M148.987 597.308C147.056 599.278 146.799 602.293 148.336 604.5C147.469 605.033 146.602 605.565 145.735 606.077C143.824 602.589 144.632 598.273 147.627 595.79C148.08 596.283 148.533 596.795 148.987 597.308Z" fill="#F2BD24"/>
<path d="M118.482 437.767C118.305 433.668 115.29 430.338 111.368 429.766C111.683 428.288 111.979 426.81 112.294 425.352C118.009 426.81 121.852 432.052 121.497 437.826C120.492 437.826 119.487 437.787 118.482 437.767Z" fill="white"/>
<path d="M161.556 508.385L160.881 522.814L168.085 523.151L168.761 508.722L161.556 508.385Z" fill="#F2BD24"/>
<path d="M113.658 446.997L113.424 465.834L122.843 465.951L123.076 447.113L113.658 446.997Z" fill="#2DD7A7"/>
<path d="M222.342 590.938L220.788 599.889L238.709 603L240.263 594.05L222.342 590.938Z" fill="#2DD7A7"/>
<path d="M97.2128 533.887L88.6323 543.661L108.21 560.848L116.79 551.074L97.2128 533.887Z" fill="white"/>
<path d="M250.681 565.858L216.669 578.872L221.008 590.21L255.019 577.195L250.681 565.858Z" fill="#2DD7A7"/>
<path d="M193.522 667.726L189.396 674.233L195.021 677.8L199.147 671.293L193.522 667.726Z" fill="#2DD7A7"/>
<path d="M295.048 522.208C292.821 534.721 282.988 541.796 274.771 541.756C275.913 539.253 276.189 536.771 275.854 534.623C282.16 533.243 289.057 525.124 286.949 513.655C290.102 515.784 292.9 518.68 295.028 522.208H295.048Z" fill="white"/>
<path d="M239.496 636.347C244.836 634.711 249.566 637.135 251.201 640.367C249.999 640.426 248.974 640.82 248.186 641.372C246.393 639.184 241.821 638.101 237.762 641.234C237.959 639.579 238.53 637.904 239.496 636.366V636.347Z" fill="#EB5A29"/>
<path d="M275.441 597.244L275.285 601.202L282.59 601.49L282.747 597.533L275.441 597.244Z" fill="white"/>
<path d="M93.0503 484.827L91.5239 489.073L99.3682 491.893L100.895 487.646L93.0503 484.827Z" fill="#EB5A29"/>
<path d="M368.094 467.125L353.683 498.953L370.737 506.675L385.148 474.847L368.094 467.125Z" fill="#4CA3FF"/>
<path d="M377.241 632.129C379.704 633.153 382.503 632.326 383.921 630.158C384.71 630.749 385.478 631.34 386.266 631.932C383.823 634.887 379.665 635.695 376.374 633.882C376.67 633.291 376.946 632.72 377.241 632.129Z" fill="#F2BD24"/>
<path d="M349.159 438.299C354.106 435.895 356.628 430.377 355.209 425.234C357.199 424.82 359.17 424.407 361.16 424.012C362.421 431.836 358.007 439.403 350.696 442.063C350.184 440.822 349.672 439.56 349.14 438.319L349.159 438.299Z" fill="white"/>
<path d="M350.676 600.845L350.6 607.288L363.506 607.442L363.583 600.998L350.676 600.845Z" fill="#2DD7A7"/>
<path d="M402.604 530.087L380.501 535.997L382.471 543.365L404.574 537.455L402.604 530.087Z" fill="#2DD7A7"/>
<path d="M355.452 615.885L351.959 617.118L353.022 620.128L356.515 618.895L355.452 615.885Z" fill="#2DD7A7"/>
<path d="M254.638 428.433L251.265 431.747L257.368 437.96L260.742 434.646L254.638 428.433Z" fill="#EB5A29"/>
<path d="M78.3601 620.838C74.4189 625.745 74.4977 632.662 78.4783 637.312C76.6259 638.692 74.7735 640.091 72.9015 641.49C67.7779 634.002 68.6647 624.011 74.9312 617.705C76.0741 618.749 77.2171 619.794 78.3601 620.818V620.838Z" fill="#4CA3FF"/>
<path d="M193.522 664.917C201.937 655.359 202.37 641.388 194.764 631.653C198.626 629.012 202.489 626.372 206.371 623.731C216.066 639.299 213.386 659.36 200.163 671.538C197.956 669.331 195.73 667.124 193.522 664.936V664.917Z" fill="#4CA3FF"/>
<path d="M151.962 662.692C154.918 661.017 156.258 657.529 155.194 654.415C156.396 654.08 157.618 653.765 158.82 653.43C159.904 658.199 157.46 663.027 153.046 664.939C152.691 664.19 152.317 663.441 151.942 662.692H151.962Z" fill="white"/>
<path d="M235.008 690.166L231.319 690.504L231.488 692.348L235.177 692.011L235.008 690.166Z" fill="#F2BD24"/>
<path d="M156.613 711.14L150.972 722.332L173.373 733.623L179.014 722.431L156.613 711.14Z" fill="#2DD7A7"/>
<path d="M193.807 697.977L185.864 704.167L204.434 727.995L212.376 721.805L193.807 697.977Z" fill="#2DD7A7"/>
<path d="M230.392 730.658C236.836 723.525 245.96 722.934 251.221 726.244C249.487 727.387 248.324 728.885 247.654 730.383C243.063 728.747 235.377 731.171 232.146 739.388C230.983 736.767 230.352 733.792 230.392 730.658Z" fill="white"/>
<path d="M52.6132 636.407L42.7192 639.221L47.9118 657.474L57.8057 654.659L52.6132 636.407Z" fill="#EB5A29"/>
<path d="M307.6 638.039C308.27 637.665 308.565 636.877 308.309 636.187C308.585 636.108 308.841 636.049 309.117 635.97C309.353 637.034 308.821 638.118 307.836 638.552C307.757 638.394 307.678 638.217 307.6 638.059V638.039Z" fill="white"/>
<path d="M375.649 674.157L371.436 680.371L383.88 688.81L388.094 682.596L375.649 674.157Z" fill="#F2BD24"/>
<path d="M250.781 640.687L244.012 641.654L245.793 654.119L252.562 653.152L250.781 640.687Z" fill="#EB5A29"/>
</g>
<defs>
<clipPath id="clip0_168_20406">
<rect width="390" height="744" fill="white"/>
</clipPath>
</defs>
</svg>
