<svg width="132" height="127" viewBox="0 0 132 127" fill="none" xmlns="http://www.w3.org/2000/svg">
<g clip-path="url(#clip0_273_1128)">
<path d="M2.58718 60.8515L23.2309 110.415L64.3025 55.7732L41.0736 0L4.04067 49.2696C1.54066 52.5975 0.986259 57.0068 2.58926 60.8515H2.58718Z" fill="url(#paint0_linear_273_1128)"/>
<path d="M23.2289 110.415L83.8312 126.631C88.1211 127.779 92.6768 126.204 95.3512 122.645L132 73.8878L64.3025 55.7732L23.231 110.415H23.2289Z" fill="url(#paint1_linear_273_1128)"/>
<path d="M64.3025 55.7732L132 73.8878L111.171 23.8763C109.658 20.2421 106.551 17.5207 102.758 16.5059L41.0736 0L64.3025 55.7732Z" fill="url(#paint2_linear_273_1128)"/>
<path d="M24.5288 73.3543C26.7942 74.588 30.3926 73.396 32.5251 70.7037L45.048 54.898C47.1805 52.2078 47.0704 48.9967 44.805 47.7631C42.5397 46.5294 38.9412 47.7214 36.8088 50.4137L24.2859 66.2194C22.1534 68.9096 22.2634 72.1207 24.5288 73.3543Z" fill="#2A2B2D"/>
<path d="M18.1914 54.8605C20.5004 56.0379 24.0947 54.7813 26.1815 52.0661L38.4303 36.1166C40.515 33.4014 40.3323 30.2153 38.0233 29.0379C35.7143 27.8606 32.12 29.1171 30.0332 31.8323L17.7844 47.7818C15.6997 50.497 15.8825 53.6832 18.1914 54.8605Z" fill="#2A2B2D"/>
<path d="M74.612 75.0527C71.514 78.7369 68.6194 82.5586 65.7851 86.422C65.0791 87.3888 64.3752 88.3578 63.6817 89.333L62.6393 90.7959C62.5521 90.923 62.4712 91.0293 62.3777 91.1751L62.0995 91.6065C62.004 91.7482 61.9313 91.9065 61.8462 92.0566C61.7631 92.2066 61.6821 92.3608 61.6157 92.5234C61.3187 93.1527 61.1153 93.8403 61.0156 94.5634C60.918 95.2844 60.9284 96.0471 61.1194 96.8097C61.3084 97.5683 61.7029 98.3205 62.2822 98.9123C62.8594 99.5083 63.5987 99.9188 64.3503 100.136C65.1082 100.348 65.8744 100.373 66.5949 100.292C67.3154 100.206 68.009 100.027 68.6485 99.7563C69.9276 99.2145 71.0509 98.408 71.9708 97.4078C72.0912 97.2869 72.195 97.1536 72.303 97.0223C72.4089 96.8889 72.5231 96.7639 72.6186 96.6222L72.9114 96.2054C73.0111 96.0637 73.0775 95.9491 73.1626 95.8199L74.1282 94.305C74.7719 93.2944 75.4052 92.2795 76.0364 91.2606C78.553 87.1825 81.0073 83.0608 83.2561 78.8014C80.1539 82.4835 77.2594 86.3053 74.4272 90.1686C73.7212 91.1355 73.0173 92.1045 72.3238 93.0797L71.2835 94.5426C71.1983 94.6593 71.107 94.7989 71.0281 94.8989L70.7914 95.2073C70.7166 95.3136 70.6211 95.4032 70.538 95.5011C70.4508 95.597 70.3699 95.697 70.2723 95.7845C69.911 96.1575 69.504 96.4805 69.0825 96.7743C68.6568 97.064 68.2 97.2953 67.737 97.4828C66.8129 97.8517 65.8183 97.9725 65.0252 97.7475C64.2299 97.5182 63.6942 96.9869 63.4761 96.1825C63.2519 95.3803 63.3765 94.38 63.7606 93.4569C63.8021 93.3381 63.8561 93.2256 63.9143 93.111C63.9724 92.9985 64.0181 92.8797 64.0866 92.7713L64.2818 92.4379C64.3441 92.3275 64.4396 92.1899 64.5164 92.0691L65.4799 90.5541C66.1236 89.5435 66.7569 88.5266 67.3881 87.5097C69.9047 83.4317 72.3591 79.3099 74.6099 75.0527H74.612Z" fill="#2A2B2D"/>
<path d="M67.3236 103.024C66.7049 103.472 66.1962 104.072 65.8099 104.772C65.4279 105.472 65.1829 106.287 65.1642 107.164C65.1476 107.383 65.1829 107.606 65.1974 107.831C65.2202 108.056 65.2846 108.279 65.3324 108.504C65.4133 108.723 65.4756 108.954 65.5857 109.167C65.6978 109.379 65.8016 109.598 65.9553 109.79C66.5221 110.592 67.3984 111.171 68.3016 111.421C69.2111 111.676 70.133 111.651 70.9657 111.465C71.3851 111.371 71.7838 111.236 72.1617 111.067C72.3486 110.976 72.5375 110.896 72.7161 110.796C72.8905 110.69 73.067 110.588 73.2373 110.477C73.908 110.025 74.4894 109.469 74.9566 108.842C75.4217 108.212 75.785 107.518 75.9678 106.772C75.3386 107.212 74.751 107.604 74.1488 107.931C73.5488 108.26 72.9507 108.537 72.3465 108.744C71.1484 109.156 69.9254 109.3 68.9744 109.035C68.4989 108.898 68.1106 108.667 67.7929 108.337C67.7036 108.262 67.6455 108.158 67.5687 108.067C67.496 107.971 67.442 107.858 67.3693 107.752C67.3216 107.631 67.2593 107.516 67.2136 107.389C67.1762 107.258 67.1119 107.133 67.089 106.991C66.9457 106.437 66.9104 105.801 66.9582 105.135C67.0039 104.464 67.1451 103.77 67.3195 103.022L67.3236 103.024Z" fill="#2A2B2D"/>
<path d="M21.084 67.5885C20.3489 67.801 19.6658 67.9781 18.9993 68.0573C18.339 68.1407 17.7056 68.1365 17.145 68.0219C17.0017 68.0073 16.873 67.9489 16.7422 67.9177C16.6134 67.8781 16.4951 67.8218 16.3726 67.7802C16.2646 67.7135 16.1483 67.6656 16.0507 67.5968C15.9552 67.5239 15.8493 67.4697 15.7704 67.3842C15.4257 67.0842 15.1766 66.707 15.0167 66.2361C14.7052 65.2963 14.7862 64.0626 15.1371 62.8415C15.3115 62.2268 15.5586 61.6121 15.8535 60.9953C16.1483 60.3743 16.5096 59.7658 16.9145 59.1136C16.1816 59.3345 15.5109 59.7346 14.9066 60.2326C14.3066 60.7348 13.7812 61.3433 13.3659 62.0393C13.2663 62.2143 13.1728 62.3956 13.0752 62.5769C12.9839 62.7603 12.9133 62.9561 12.8323 63.1458C12.6849 63.5334 12.5686 63.9418 12.498 64.3648C12.3547 65.2087 12.3755 66.1339 12.6745 67.0321C12.9693 67.9239 13.5902 68.7741 14.4166 69.3013C14.6159 69.4451 14.8381 69.5389 15.0561 69.641C15.2742 69.741 15.5046 69.791 15.7289 69.8619C15.9552 69.8994 16.1816 69.9515 16.4058 69.964C16.6301 69.9661 16.8543 69.9911 17.0703 69.964C17.9424 69.8994 18.7397 69.6118 19.4187 69.1951C20.0956 68.7721 20.6666 68.2324 21.0819 67.5885H21.084Z" fill="#2A2B2D"/>
<path d="M94.2445 79.3619C91.1465 83.0461 88.252 86.8678 85.4177 90.7312C84.7117 91.6981 84.0078 92.6671 83.3143 93.6423L82.2719 95.1051C82.1847 95.2322 82.1037 95.3385 82.0103 95.4844L81.732 95.9157C81.6365 96.0574 81.5639 96.2158 81.4787 96.3658C81.3957 96.5159 81.3147 96.6701 81.2482 96.8326C80.9513 97.4619 80.7478 98.1496 80.6482 98.8727C80.5506 99.5937 80.5609 100.356 80.752 101.119C80.9409 101.878 81.3354 102.63 81.9148 103.222C82.492 103.818 83.2312 104.228 83.9829 104.445C84.7408 104.657 85.507 104.682 86.2275 104.601C86.948 104.516 87.6415 104.336 88.2811 104.066C89.5601 103.524 90.6835 102.717 91.6033 101.717C91.7238 101.596 91.8276 101.463 91.9356 101.332C92.0415 101.198 92.1557 101.073 92.2512 100.931L92.544 100.515C92.6436 100.373 92.7101 100.258 92.7952 100.129L93.7607 98.6143C94.4044 97.6036 95.0377 96.5888 95.669 95.5698C98.1856 91.4918 100.64 87.37 102.889 83.1107C99.7865 86.7928 96.892 90.6145 94.0597 94.4779C93.3538 95.4448 92.6499 96.4138 91.9563 97.389L90.916 98.8518C90.8309 98.9685 90.7395 99.1081 90.6606 99.2082L90.4239 99.5166C90.3492 99.6228 90.2537 99.7124 90.1706 99.8104C90.0834 99.9062 90.0024 100.006 89.9048 100.094C89.5435 100.467 89.1366 100.79 88.715 101.084C88.2894 101.373 87.8326 101.605 87.3695 101.792C86.4455 102.161 85.4509 102.282 84.6577 102.057C83.8625 101.828 83.3267 101.296 83.1087 100.492C82.8845 99.6895 83.009 98.6893 83.3932 97.7662C83.4347 97.6474 83.4887 97.5349 83.5468 97.4203C83.605 97.3077 83.6507 97.1889 83.7192 97.0806L83.9144 96.7472C83.9767 96.6367 84.0722 96.4992 84.149 96.3783L85.1125 94.8634C85.7561 93.8528 86.3895 92.8359 87.0207 91.819C89.5373 87.7409 91.9916 83.6192 94.2425 79.3619H94.2445Z" fill="#2A2B2D"/>
<path d="M101.333 29.5735C101.487 30.6279 101.676 31.6719 101.886 32.7096C102.093 33.7473 102.322 34.7788 102.56 35.8041C103.042 37.8566 103.576 39.8925 104.149 41.918L104.259 42.2972L104.352 42.6327C104.404 42.8515 104.454 43.0703 104.485 43.2912C104.554 43.7309 104.566 44.1664 104.537 44.5873C104.479 45.4292 104.174 46.1981 103.707 46.6836C103.472 46.9274 103.196 47.0983 102.886 47.2046C102.573 47.3067 102.22 47.3442 101.852 47.3046C101.113 47.24 100.318 46.8754 99.6244 46.344C98.9205 45.8209 98.31 45.127 97.8324 44.3539C97.5916 43.9684 97.386 43.56 97.2157 43.1391L97.0953 42.8161L96.9666 42.4431L96.707 41.6992C96.0052 39.7175 95.2951 37.7378 94.5559 35.7686C93.8229 33.7973 93.0629 31.8344 92.2801 29.8798C91.4952 27.9252 90.6875 25.9789 89.8154 24.0514C90.239 26.1227 90.7269 28.1752 91.2377 30.2194C91.7485 32.2637 92.2863 34.2975 92.847 36.325C93.4034 38.3546 93.989 40.3739 94.5828 42.391L94.8092 43.1453L94.9234 43.5225C94.9649 43.6559 95.0127 43.8038 95.0604 43.9434C95.2598 44.5061 95.5069 45.0499 95.8017 45.5667C96.4018 46.5961 97.1763 47.5276 98.1356 48.284C99.097 49.0258 100.258 49.6239 101.612 49.7677C102.284 49.8406 102.996 49.7677 103.678 49.5385C104.359 49.303 104.99 48.8925 105.478 48.3757C105.966 47.8568 106.315 47.2463 106.541 46.6211C106.769 45.996 106.881 45.3563 106.915 44.7269C106.946 44.0976 106.894 43.4787 106.778 42.8828C106.724 42.5827 106.645 42.2931 106.564 42.0034C106.52 41.8638 106.472 41.7096 106.427 41.5846L106.294 41.2136C105.571 39.2382 104.809 37.2773 103.997 35.331C103.588 34.36 103.171 33.391 102.729 32.4283C102.291 31.4656 101.832 30.5112 101.337 29.5672L101.333 29.5735Z" fill="#2A2B2D"/>
<path d="M95.9198 39.8613C93.2205 37.9692 97.7782 46.4774 102.097 45.3604C104.408 45.1375 105.409 42.2993 104.323 39.0527C104.323 39.0527 102.909 44.7603 95.9198 39.8613Z" fill="#2A2B2D"/>
<path d="M74.4149 36.3479C71.7156 34.4558 76.2733 42.9641 80.5923 41.8471C82.9033 41.6242 83.9042 38.786 82.8182 35.5394C82.8182 35.5394 81.4042 41.247 74.4149 36.3479Z" fill="#2A2B2D"/>
<path d="M79.0592 24.0555C79.4516 26.3498 79.9583 28.6066 80.5023 30.8508C81.0463 33.0951 81.6443 35.3227 82.2755 37.5378L82.7386 39.1548C82.859 39.6341 82.9317 40.1196 82.9379 40.5926C82.9691 41.5345 82.724 42.4514 82.2402 43.0432C82.0035 43.3433 81.717 43.56 81.3868 43.6934C81.0588 43.8288 80.6725 43.8726 80.2697 43.8392C79.4599 43.7788 78.5857 43.3516 77.8403 42.7452C77.0845 42.1409 76.447 41.3449 75.9757 40.4697C75.8573 40.2509 75.7473 40.0258 75.6538 39.7966C75.604 39.6841 75.5604 39.5632 75.5168 39.4424L75.3714 39.0444L74.7776 37.4211C73.9802 35.2581 73.1746 33.1013 72.3399 30.9508C70.6787 26.6499 68.9449 22.3739 67.0471 18.1583C68.1206 22.6573 69.3623 27.0979 70.6725 31.5156C71.3245 33.7244 72.0035 35.9249 72.6949 38.1212L73.2161 39.7675L73.3511 40.1863C73.3988 40.3384 73.4487 40.4905 73.5089 40.6427C73.621 40.949 73.7518 41.249 73.8951 41.5429C74.4682 42.716 75.2801 43.7684 76.2934 44.6332C76.8021 45.0645 77.371 45.4354 77.9981 45.7334C78.6252 46.0251 79.3166 46.2439 80.0579 46.3106C80.7971 46.3773 81.5841 46.2856 82.3171 45.9814C83.0521 45.6813 83.7 45.1687 84.1671 44.5602C84.6364 43.9497 84.9396 43.2558 85.1119 42.566C85.2863 41.8721 85.3362 41.1761 85.3009 40.4989C85.2614 39.8216 85.1348 39.1631 84.9479 38.5338L84.8731 38.3005L84.8358 38.1838L84.8005 38.0817L84.6572 37.6753L84.3623 36.8626C83.5754 34.6975 82.7531 32.5429 81.8789 30.407C81.0027 28.2711 80.0891 26.1477 79.0633 24.0597L79.0592 24.0555Z" fill="#2A2B2D"/>
<path d="M85.3012 50.8513C86.354 51.5285 87.4441 51.9515 88.5446 52.3079C89.6451 52.6579 90.7622 52.8997 91.8876 53.0684C93.0151 53.2331 94.153 53.3227 95.3075 53.3018C96.462 53.2747 97.6269 53.1831 98.8291 52.833C97.7764 52.1516 96.6862 51.7286 95.5878 51.3722C94.4873 51.0221 93.3702 50.7804 92.2448 50.6158C91.1173 50.4533 89.9794 50.3657 88.8249 50.3866C87.6704 50.4137 86.5056 50.5054 85.3033 50.8534L85.3012 50.8513Z" fill="#2A2B2D"/>
</g>
<defs>
<linearGradient id="paint0_linear_273_1128" x1="21.6557" y1="4.16256" x2="43.7171" y2="105.925" gradientUnits="userSpaceOnUse">
<stop offset="0.28" stop-color="white"/>
<stop offset="0.96" stop-color="#D0E8E8"/>
</linearGradient>
<linearGradient id="paint1_linear_273_1128" x1="53.0738" y1="66.6814" x2="101.659" y2="116.709" gradientUnits="userSpaceOnUse">
<stop offset="0.28" stop-color="white"/>
<stop offset="0.96" stop-color="#D0E8E8"/>
</linearGradient>
<linearGradient id="paint2_linear_273_1128" x1="116.506" y1="41.9575" x2="63.7371" y2="33.2569" gradientUnits="userSpaceOnUse">
<stop offset="0.28" stop-color="white"/>
<stop offset="0.96" stop-color="#D0E8E8"/>
</linearGradient>
<clipPath id="clip0_273_1128">
<rect width="132" height="127" fill="white" transform="matrix(-1 0 0 1 132 0)"/>
</clipPath>
</defs>
</svg>
