<svg width="350" height="500" viewBox="0 0 350 500" fill="none" xmlns="http://www.w3.org/2000/svg">
<g style="mix-blend-mode:hue">
<path d="M562.425 442.41L562.425 48.2248L37.1945 48.2248L37.1945 442.41L562.425 442.41Z" fill="#3C1D7F"/>
<path d="M147.582 436.114L396.152 436.114C398.204 435.293 410.184 432.702 412.262 431.881C381.376 428.854 346.258 405.203 327.968 380.807C301.7 345.792 321.376 302.132 317.682 262.627C314.424 227.92 292.081 196.162 261.119 180.412C220.178 159.608 171.464 166.637 129.728 147.962C85.3235 128.081 43.9721 73.3905 72.7026 24.3947L-7.56335 31.3721C-6.74246 31.7826 -9.38461 28.4991 -8.56375 28.9095L-8.56377 433.959C-7.17855 432.83 -4.10027 433.138 -2.38155 433.651L147.633 436.114L147.582 436.114Z" fill="#00F0FF"/>
<path d="M477.469 450.478C476.879 450.478 454.356 420.568 449.944 417.028C437.913 407.434 423.009 401.996 408.952 396.121C355.185 373.675 336.33 320.216 367.549 268.809C390.021 231.793 428.986 207.372 445.404 166.482C465.49 116.409 454.408 20.7772 388.02 3.35934C391.303 4.23151 405.976 3.69282 409.26 4.53934L572.536 4.53935C573.332 5.38587 576.282 4.92413 577.103 5.77066L577.103 450.094C575.025 450.838 570.561 448.041 568.458 448.785L477.469 450.453L477.469 450.478Z" fill="#5A37BC"/>
<path d="M1.8253 498.552L239.853 497.962C217.484 469.796 233.901 431.292 249.908 404.152C268.404 372.753 283.949 346.049 279.485 307.725C272.893 250.879 226.565 209.579 174.516 191.956C137.782 179.515 97.4057 173.102 64.0321 152.451C24.7584 128.159 -4.63907 79.086 12.3684 32.2962C16.9345 19.7523 25.7845 8.46527 37.7641 2.5396C37.3537 2.53959 37.0715 1.98876e-05 36.6611 1.98696e-05L-14.0791 1.76517e-05L1.77397 498.526L1.8253 498.552Z" fill="#5A37BC"/>
<path d="M26.887 149.836C26.8101 151.375 26.9897 152.888 27.554 154.376C28.9136 157.967 32.1714 160.456 35.3266 162.687C54.6172 176.232 75.8059 187.057 98.0721 194.778C121.21 202.808 145.324 207.63 168.154 216.762C195.576 227.742 218.484 245.903 235.312 270.273C248.523 289.41 254.679 311.676 252.191 334.917C250.626 349.615 246.265 363.801 241.879 377.833C238.518 388.633 235.568 399.535 232.746 410.488C232.054 413.182 228.103 434.525 224.512 434.242C225.718 434.319 226.616 433.165 227.18 432.088C228.206 430.189 230.181 429.266 231.284 427.573C233.054 424.905 233.773 420.775 234.85 417.748C237.236 411.027 239.621 404.332 241.981 397.611C252.242 368.675 266.377 339.791 260.425 308.341C254.089 274.89 230.771 246.724 203.785 227.203C195.089 220.918 185.803 215.377 176.106 210.76C152.198 199.37 125.905 194.573 101.099 185.646C74.4463 176.052 51.0002 158.147 32.8127 136.573C29.914 140.447 27.1179 144.833 26.8101 149.81L26.887 149.836Z" fill="#E2FE39"/>
<path d="M-28.7018 468.513C-31.5236 469.077 -34.6018 468.179 -36.7309 466.23C-5.76865 470.385 25.5528 472.053 56.7716 471.206C75.1899 470.719 89.0678 472.514 107.46 471.155C115.002 470.591 118.645 451.069 121.031 445.503C127.059 431.419 134.626 418.055 140.475 403.843C151.89 376.088 160.099 346.28 157.431 316.01C154.173 279.096 133.985 244.927 105.511 221.687C78.5247 199.677 45.4589 187.749 16.3693 169.074C-16.6196 147.885 -38.8344 116.461 -46.9406 77.8285C-48.8388 216.351 -50.891 347.767 -49.4545 486.315C-50.6088 479.825 -33.5757 472.95 -28.7018 468.487L-28.7018 468.513Z" fill="#3C1D7F"/>
<path d="M-82.4684 466.433C-85.2902 466.998 -88.3684 466.1 -90.4976 464.15C-59.5353 468.306 -28.2139 469.973 3.00493 469.127C21.4233 468.639 35.3012 470.435 53.6938 469.076C61.2356 468.511 64.8782 448.99 67.2639 443.423C73.2922 429.34 80.8596 415.975 86.7083 401.764C98.1236 374.008 106.332 344.2 103.664 313.931C100.407 277.017 80.2183 242.848 51.7443 219.607C24.7581 197.598 -8.3077 185.669 -37.3974 166.994C-70.3862 145.806 -92.6011 114.382 -100.707 75.7493C-102.605 214.272 -104.658 345.688 -103.221 484.236C-104.375 477.746 -87.3423 470.871 -82.4684 466.408L-82.4684 466.433Z" fill="#F96767"/>
<path d="M220.843 439.576C214.918 425.236 221.177 409.742 226.205 396.146C232.028 380.447 237.363 364.414 239.595 347.766C241.622 332.529 241.263 316.06 235.824 301.515C231.207 289.151 217.072 269.629 202.143 281.686C193.96 288.304 194.037 300.515 194.062 311.058C194.191 348.869 185.187 387.938 163.947 419.567C160.073 425.339 155.764 431.11 154.301 437.908C154.507 437.908 153.686 437.421 153.891 437.421L210.48 434.368C214.866 436.497 217.329 436.19 220.869 439.55L220.843 439.576Z" fill="#3C1D7F"/>
</g>
<g style="mix-blend-mode:soft-light">
<path d="M-438.333 354.859C-438.333 354.859 -426.397 355.74 -405.081 357.308C-394.046 369.251 -381.863 379.732 -368.644 388.824C-355.429 397.915 -341.177 405.609 -326.006 411.977C-310.117 421.809 -292.827 430.706 -274.488 438.564C-256.15 446.421 -236.764 453.233 -216.686 458.899C-79.1326 507.948 180.766 550.454 216.926 410.337C222.577 386.72 233.874 365.469 252.801 350.317C259.405 345.331 266.856 341.024 279.213 338.465C329.925 342.642 424.84 381.999 424.84 345.79C424.84 315.877 318.623 312.729 311.841 267.075C309.582 256.055 329.921 241.886 348.001 245.034C406.76 259.203 461 270.223 526.538 256.055C569.476 245.034 628.235 262.351 644.056 296.988C662.136 339.494 650.834 391.448 614.674 427.657C612.415 424.509 610.155 419.785 612.415 416.637C641.796 374.131 659.872 319.029 607.896 281.244C587.556 267.075 558.175 257.627 531.057 263.927C470.038 276.523 413.539 289.116 350.261 274.947C341.222 273.371 329.921 279.671 320.879 281.244C357.039 311.157 411.279 317.453 458.737 337.918C474.557 345.79 467.775 356.81 454.218 361.535C402.237 378.851 343.478 366.259 295.869 349.58C284.579 348.84 274.618 349.971 266.746 353.245C258.869 356.514 253.078 361.93 250.819 370.979C239.517 430.805 196.579 485.907 110.702 501.648C6.7445 520.541 -99.476 500.072 -194.217 473.63C-213.702 469.289 -232.613 463.798 -250.64 457.175C-268.671 450.556 -285.817 442.805 -301.785 433.95C-316.478 426.563 -329.264 420.461 -341.143 413.177C-353.021 405.893 -363.988 397.425 -373.938 387.711C-389.846 375.035 -402.867 372.771 -413.523 371.985C-434.839 370.413 -446.774 369.536 -446.774 369.536L-438.333 354.855V354.859Z" stroke="white" stroke-width="2.48" stroke-miterlimit="10"/>
<path d="M-73.6409 357.452C-73.6409 357.452 -65.9054 358.022 -52.0938 359.04C-44.9431 366.779 -37.048 373.569 -28.4846 379.459C-19.9212 385.349 -10.6856 390.335 -0.857643 394.463C9.43744 400.835 20.6401 406.6 32.5225 411.688C44.405 416.777 56.9672 421.194 69.9775 424.866C159.109 456.647 327.51 484.191 350.941 393.4C354.602 378.099 361.923 364.326 374.189 354.509C378.469 351.277 383.296 348.486 391.305 346.831C424.165 349.538 485.665 375.039 485.665 351.577C485.665 332.195 416.839 330.156 412.445 300.573C410.98 293.434 424.161 284.251 435.876 286.291C473.95 295.473 509.096 302.612 551.56 293.43C579.385 286.29 617.458 297.512 627.708 319.952C639.423 347.495 632.102 381.16 608.671 404.621C607.205 402.582 605.743 399.521 607.205 397.482C626.242 369.938 637.958 334.234 604.277 309.752C591.1 300.569 572.059 294.451 554.488 298.53C514.948 306.691 478.34 314.852 437.338 305.669C431.482 304.648 424.161 308.73 418.301 309.748C441.732 329.13 476.878 333.209 507.627 346.474C517.876 351.574 513.482 358.713 504.699 361.774C471.018 372.996 432.944 364.835 402.097 354.027C394.779 353.548 388.327 354.281 383.227 356.4C378.124 358.519 374.372 362.028 372.91 367.892C365.588 406.657 337.763 442.361 282.118 452.561C214.758 464.804 145.932 451.54 84.541 434.405C71.9142 431.591 59.6634 428.033 47.9823 423.746C36.3011 419.454 25.1895 414.434 14.8413 408.696C5.32092 403.911 -2.96529 399.958 -10.6591 395.234C-18.3566 390.513 -25.4618 385.026 -31.91 378.734C-42.2164 370.52 -50.6546 369.054 -57.5622 368.545C-71.3738 367.527 -79.1094 366.957 -79.1094 366.957L-73.6409 357.445V357.452Z" fill="white"/>
<path d="M-308.177 94.1056C-288.065 119.154 -272.324 144.297 -252.007 168.537C-241.849 180.659 -230.551 192.553 -216.99 204.097C-180.83 240.306 -174.052 282.812 -155.972 323.745C-115.293 285.96 -108.514 237.158 -88.1748 193.077C-81.3962 180.48 -67.8353 169.464 -52.0148 166.312C22.5647 163.164 88.1023 139.547 153.644 114.358C167.205 108.061 183.021 109.634 196.582 103.337C248.563 79.7206 298.28 59.2557 360.176 57.5545C375.028 57.2431 388.391 55.7696 401.755 54.7671C414.803 53.4228 428.163 52.9405 441.936 53.5633C457.225 53.7987 468.58 53.5215 478.1 53.081C557.453 49.4088 626.792 63.1102 677.903 101.94C686.542 109.224 695.121 117.669 701.045 126.339C714.116 139.543 732.196 150.563 752.536 156.863C748.016 160.012 743.497 166.308 738.975 164.736C696.036 158.439 684.735 125.378 661.331 103.835C654.829 98.9322 647.602 94.3942 640.049 90.2967C615.946 77.7421 587.978 69.0647 556.887 64.2685C546.524 62.6697 535.815 61.5039 524.783 60.7672C513.755 60.0304 502.404 59.7266 490.765 59.852C475.632 58.4393 460.639 57.7443 445.81 57.7481C430.98 57.7481 416.318 58.4545 401.85 59.8368C323.138 54.5278 253.078 78.1446 192.059 114.354C180.758 120.65 164.941 120.65 153.64 123.798C92.6214 145.839 31.6028 164.732 -36.5779 170.322C-52.0186 173.39 -64.4479 180.476 -70.0986 191.497C-88.1786 226.134 -88.1786 262.343 -101.74 298.553C-110.778 320.594 -131.117 339.486 -128.858 363.099C-146.938 359.951 -171.796 355.227 -174.056 342.634C-183.094 296.981 -189.876 251.323 -225.299 212.341C-240.6 194.823 -259.181 178.38 -280.276 163.16C-291.578 153.715 -293.837 141.119 -298.356 130.098C-302.875 123.802 -307.394 115.93 -317.686 112.873L-308.18 94.1018L-308.177 94.1056Z" fill="white"/>
<path d="M-378.369 271.499C-352.588 280.355 -343.55 297.672 -335.161 314.271C-331.052 321.285 -325.876 327.949 -317.613 337.386C-309.129 352.284 -297.729 365.875 -284.043 377.978C-270.357 390.081 -254.384 400.687 -236.76 409.611C-144.67 458.25 -13.5948 507.056 101.664 467.698C149.121 451.954 183.022 417.32 180.762 379.535C179.631 366.152 184.153 349.622 184.4 333.771C184.841 326.742 184.495 320.077 182.065 313.99C179.634 307.902 175.111 302.392 167.201 297.668C135.56 278.775 79.0608 281.923 63.2441 253.586C47.4236 229.973 88.1028 209.505 115.225 198.484C146.866 185.888 180.762 182.74 216.922 182.74C235.002 181.164 253.082 178.016 264.38 168.571C284.719 155.975 307.884 146.53 332.211 141.601C344.375 139.137 356.831 137.8 369.112 137.853C384.157 140.23 411.279 143.378 411.279 151.251C420.317 228.394 537.836 201.629 607.896 217.373C653.094 226.818 677.956 256.731 684.735 288.22C648.575 214.225 531.057 229.97 440.657 217.373C404.497 212.649 413.539 179.588 388.677 166.995C368.337 155.975 343.478 162.271 322.311 173.174C310.862 176.436 298.865 179.444 286.645 182.098C237.763 192.708 187.541 195.86 133.301 203.205C115.221 206.353 88.1027 217.373 97.1408 234.69C103.919 245.71 121.999 250.434 137.82 255.155C167.198 263.027 210.14 266.175 220.287 289.644C221.437 296.874 218.05 303.957 214.564 311.206C211.078 318.452 207.493 325.865 209.365 333.6C209.259 342.566 208.678 351.612 207.451 360.593C201.314 405.502 179.068 448.794 119.744 472.411C-2.29346 522.789 -144.674 467.687 -248.43 417.605C-264.053 409.733 -278.499 400.74 -291.342 390.715C-304.189 380.693 -315.433 369.642 -324.654 357.661C-334.132 350.59 -342.942 343.022 -350.989 334.523C-359.036 326.024 -366.32 316.595 -372.768 306.209C-390.833 292.211 -402.769 291.334 -402.769 291.334L-378.366 271.488L-378.369 271.499Z" fill="white"/>
<path d="M-325.679 135.962C-311.503 151.817 -295.219 167.246 -278.912 182.732C-262.606 198.218 -246.269 213.758 -231.99 229.821C-203.433 260.771 -183.093 298.557 -187.612 336.342C-187.612 342.638 -185.353 348.938 -177.762 354.403C-169.111 362.043 -159.613 369.263 -149.379 375.988C-118.68 396.164 -81.3919 411.909 -40.7129 421.353C-51.4484 412.695 -61.0524 403.345 -68.336 393.76C-103.49 335.252 -99.2326 259.233 -55.227 205.286C-48.9421 197.58 -41.8445 190.323 -33.9343 183.632C67.7633 148.995 176.243 131.678 273.422 82.8763C305.063 67.1318 348.001 62.4115 388.153 66.4976C403.024 64.3254 418.161 63.1444 433.616 63.2507C449.069 63.3571 464.84 64.7546 480.975 67.7432C497.529 70.1015 510.349 71.3129 523.185 73.0066C535.774 74.6015 548.374 76.6788 560.966 79.2725C570.35 81.2472 579.415 83.5713 588.157 86.2523C596.895 88.9334 605.219 91.9752 612.666 95.3588C646.312 109.641 662.132 134.83 684.731 158.443C696.033 167.888 716.372 171.04 723.151 182.06C725.41 185.208 714.113 188.356 709.59 194.656C697.161 189.146 684.8 182.155 673.536 174.735C662.273 167.314 653.314 160.194 647.014 152.77C638.402 143.492 631.623 132.472 623.61 122.184C615.597 111.897 606.351 102.342 591.252 95.0398C583.755 91.5916 574.979 88.6486 565.33 86.2182C553.257 84.3726 541.128 82.9067 528.968 81.8168C516.475 80.5674 501.068 77.9054 484.321 75.5547C468.759 72.8395 453.527 71.5825 438.599 71.5255C423.667 71.4686 409.039 72.6154 394.669 74.7003C341.219 71.8559 289.242 81.3004 246.3 104.917C228.22 115.938 212.399 128.534 189.8 133.254C158.16 139.551 128.782 145.851 99.4005 156.867C58.7215 169.464 13.5233 171.036 -27.1861 185.364C-35.1191 189.146 -41.0926 195.177 -45.2357 202.521C-74.6171 257.623 -94.9566 330.042 -42.3572 383.632C-30.4595 396.233 -15.2884 407.971 4.48524 418.205C9.00429 419.781 18.0462 426.077 13.5234 427.649C-58.0409 446.018 -132.746 411.905 -182.311 371.978C-192.223 363.992 -201.132 355.774 -208.806 347.696C-206.9 329.115 -209 311.339 -214.362 294.341C-219.72 277.37 -228.356 261.124 -239.509 245.653C-261.812 214.711 -294.201 186.758 -330.729 161.553L-325.679 135.958V135.962Z" stroke="white" stroke-width="2.48" stroke-miterlimit="10"/>
<path d="M-425.022 331.709C-425.022 331.709 -413.086 332.59 -391.771 334.158C-382.418 347.753 -371.602 359.586 -359.496 369.76C-347.386 379.934 -333.984 388.448 -319.36 395.868C-304.022 408.107 -287.07 418.718 -268.898 427.729C-250.727 436.741 -231.341 444.157 -211.13 450.009C-110.773 484.327 9.00418 514.241 119.744 484.327C185.281 465.435 223.701 416.633 216.922 366.251C215.229 357.198 218.901 350.507 225.607 345.145C232.625 339.874 242.677 335.928 257.203 333.456C267.574 331.747 278.408 330.106 290.074 330.414C314.101 339.486 345.738 350.507 375.119 341.062C354.78 309.577 300.54 300.129 279.946 269.297C271.842 262.093 263.62 258.724 256.151 255.47C241.215 248.965 229.348 240.306 225.96 227.71C242.347 225.743 257.742 222.101 272.658 217.65C300.54 210.393 334.44 200.945 357.039 210.393C388.68 224.562 413.539 257.623 458.737 251.327C512.977 245.03 564.954 229.286 614.675 254.475C668.915 282.812 686.995 334.766 662.132 377.272C673.434 337.914 671.17 290.684 619.194 263.919C560.435 235.582 497.156 252.899 436.138 252.899C402.237 252.899 381.898 227.71 354.78 219.838C334.44 213.541 305.059 226.134 279.019 227.528C267.065 232.039 254.776 235.973 241.781 238.73C248.559 243.454 255.342 247.784 262.713 251.718C270.084 255.652 277.857 260.988 286.371 271.157C311.841 303.277 357.039 315.873 399.982 336.338C404.501 337.914 413.543 344.21 409.02 345.782C375.119 370.971 323.143 347.358 285.608 337.063C272.001 337.386 260.662 338.711 252.623 341.848C245.172 345.095 239.521 349.721 237.262 356.803C225.96 397.736 223.701 438.67 171.724 467.007C51.9465 529.981 -97.2125 490.624 -214.085 451.904C-234.011 446.075 -253.127 438.829 -271.078 430.156C-289.029 421.482 -305.818 411.381 -321.092 399.836C-335.792 392.834 -349.448 384.65 -361.964 374.985C-374.485 365.321 -385.87 354.183 -395.986 341.491C-417.302 339.919 -429.237 339.042 -429.237 339.042L-425.018 331.701L-425.022 331.709Z" fill="white"/>
<path d="M-284.283 61.9405C-275.75 62.4114 -259.929 60.8355 -259.929 63.9836C-261.061 97.8309 -246.934 130.501 -224.901 160.805C-213.884 175.957 -201.223 191.09 -187.583 206.356C-174.052 221.417 -158.232 235.586 -142.411 248.179C-146.93 210.393 -122.322 170.512 -78.6317 148.121C-67.7101 142.524 -55.6036 138.358 -42.4717 137.264C70.0222 153.719 151.38 90.7485 248.559 60.8355C291.497 46.6669 338.959 45.0909 386.086 43.3061C397.239 42.1744 407.212 41.058 416.485 40.0099C425.759 38.9617 434.334 37.982 442.696 37.1199C543.493 26.3426 633.87 36.5693 694.221 85.1092C702.841 92.0435 710.85 99.76 718.191 108.308C733.829 120.206 747.405 126.688 757.07 130.258C766.734 133.828 772.302 134.386 772.302 134.386L767.141 141.081C745.753 136.399 727.673 125.378 713.607 113.735C706.35 105.836 698.212 98.5524 689.504 91.9448C626.667 45.034 536.008 31.4085 433.24 41.282C421.494 42.4099 406.046 43.2529 390.112 44.8593C345.741 46.6593 298.284 45.0871 255.345 59.2557C153.647 93.8891 65.507 155.291 -54.2706 148.991C-66.3239 151.353 -76.5583 155.071 -85.2926 159.837C-128.975 183.67 -135.253 233.744 -144.667 271.788C-155.968 254.471 -171.785 240.302 -184.021 223.107C-197.589 206.413 -211.055 189.431 -223.769 173.591C-249.194 141.909 -268.967 108.848 -266.708 71.8483C-266.708 70.2723 -282.528 74.9964 -292.109 71.0052L-284.283 61.9329V61.9405Z" stroke="white" stroke-width="2.48" stroke-miterlimit="10"/>
<path d="M-351.27 246.31C-307.39 265.499 -282.528 303.281 -280.887 338.157C-276.991 348.107 -268.101 358.683 -257.844 368.423C-247.587 378.164 -235.81 387.479 -222.356 395.792C-133.369 455.994 47.4276 525.265 137.828 435.529C153.648 420.575 155.908 400.892 149.129 382.394C140.091 333.197 60.9885 319.029 29.3514 278.095C21.4412 268.651 19.7475 258.417 22.007 248.182C45.1719 219.845 79.0723 193.08 122.011 183.636C192.071 166.319 257.609 152.151 323.147 122.238C348.005 111.217 377.387 108.069 407.292 112.41C420.545 111.779 433.803 112.216 446.779 113.564C456.485 114.369 470.042 117.517 470.042 122.241C474.561 142.706 456.481 171.047 488.122 180.492C549.141 200.956 632.758 188.364 668.918 234.018C625.98 200.956 560.438 200.956 499.42 194.66C454.222 189.936 451.962 155.303 458.741 130.114C461 123.817 447.44 122.241 439.108 120.734C428.262 119.363 414.583 119.287 400.81 118.831C390.944 119.093 379.642 117.517 370.604 119.093C316.364 128.538 282.464 161.599 230.487 167.899C151.389 177.343 74.5495 186.792 19.7931 228.029C11.0663 234.785 6.18271 245.433 7.03336 255.47C7.88019 265.507 13.5309 274.165 27.0919 278.099C83.5914 298.564 153.648 319.033 146.87 370.987C148.001 384.369 152.52 400.114 151.954 414.871C151.389 429.632 145.738 443.405 126.53 452.85C-4.54907 517.396 -165.006 449.702 -253.279 380.853C-265.211 371.42 -275.764 361.109 -284.954 350.222C-294.144 339.33 -298.132 329.066 -297.915 319.804C-314.161 296.992 -327.722 270.231 -360.438 256.841L-351.263 246.318L-351.27 246.31Z" fill="white"/>
<path d="M-341.219 227.809C-278.009 252.903 -271.227 304.857 -258.349 349.793C-250.333 358.812 -241.389 367.311 -231.318 375.323C-155.968 437.098 -6.80899 504.796 94.8886 443.398C121.255 428.177 125.774 412.437 118.156 396.984C101.667 352.086 33.8662 337.918 -2.28995 300.132C-20.9358 282.421 -24.3232 260.281 -17.2256 239.691C-14.8218 232.867 -11.2559 226.218 -6.36088 220.312C56.4729 182.052 142.35 166.312 219.189 150.567C280.208 137.971 332.188 89.1688 408.993 103.261C423.534 101.765 438.002 101.253 452.228 101.891C462.899 102.373 473.433 103.501 483.762 105.358C493.757 107.321 503.544 110.01 508.989 114.054C506.202 139.543 503.942 166.308 546.881 174.18C589.819 183.625 632.758 193.073 668.918 211.965C612.418 191.501 528.801 194.649 497.16 153.715C488.122 142.695 519.759 119.078 491.247 110.959C480.994 108.608 470.201 107.131 459.211 106.36C444.557 105.331 429.537 105.563 414.363 106.85C345.745 100.189 280.208 115.934 232.746 153.715C228.227 160.012 216.926 163.16 205.628 163.16C128.789 161.584 63.2515 194.645 11.3811 230C4.76964 236.406 1.24173 244.632 -0.311458 253.29C-3.41783 270.607 -0.0304415 288.318 11.271 304.849C29.351 331.614 72.2896 341.058 105.077 358.561C125.565 370.337 135.571 387.893 135.571 404.819C135.571 421.744 124.27 438.666 101.671 449.686C-27.1485 511.085 -178.563 429.222 -256.72 356.404C-261.991 350.993 -266.852 345.357 -268.834 340.082C-266.704 298.553 -293.822 257.619 -343.843 233.919L-341.211 227.801L-341.219 227.809Z" stroke="white" stroke-width="2.48" stroke-miterlimit="10"/>
<path d="M-411.712 308.563C-411.712 308.563 -399.776 309.444 -378.461 311.012C-370.919 324.794 -361.752 336.999 -351.141 347.677C-340.531 358.356 -328.485 367.504 -314.48 379.068C-300.881 392.226 -285.52 403.641 -268.785 413.375C-251.844 423.381 -233.525 431.705 -214.005 438.689C-142.407 465.439 -67.8273 487.479 15.7903 492.203C65.5112 493.779 117.488 484.331 158.167 462.29C203.365 437.101 219.186 399.316 212.407 359.959C212.407 356.81 216.926 352.086 219.185 348.938C224.27 343.823 231.379 339.311 239.107 335.051C250.618 330.186 264.843 328.151 277.903 325.01C291.502 328.473 305.063 328.473 318.624 328.473C314.105 308.009 286.983 298.56 271.656 283.947C261.365 280.123 250.819 276.763 240.155 273.554C208.169 263.927 175.115 255.66 144.606 240.31C131.045 234.014 126.526 221.417 140.087 216.693C176.247 204.097 219.186 211.969 257.605 202.525C273.707 198.393 289.174 193.597 304.375 188.971C327.665 188.356 354.784 177.336 370.604 186.78C393.203 200.949 406.764 229.286 438.401 227.714C544.618 221.417 686.998 235.586 686.998 328.47C684.739 285.964 646.319 248.179 589.82 234.01C544.622 222.99 501.679 240.306 456.481 240.306C420.321 241.882 399.982 218.266 384.161 197.801C368.341 177.336 341.223 189.928 316.273 192.135C307.436 193.278 297.046 195.499 284.81 198.913C272.575 202.327 259.861 205.278 246.304 207.249C221.445 211.973 194.323 208.825 169.465 208.825C155.904 208.825 140.083 215.121 144.606 224.569C163.252 249.363 200.965 259.108 236.138 271.176C247.864 275.198 259.306 279.482 269.666 284.665C278.339 290.217 287.533 299.335 296.757 308.176C311.648 320.453 302.454 320.419 287.131 317.958C272.734 317.548 255.099 322.367 245.821 327.277C236.217 331.728 231.945 338.123 228.641 344.799C215.415 371.503 210.896 399.844 194.323 426.081C117.484 544.157 -110.773 489.055 -233.726 433.296C-250.124 426.366 -265.507 418.342 -279.49 409.311C-293.472 400.281 -306.053 390.24 -316.838 379.277C-330.187 370.163 -342.221 361.102 -352.884 350.59C-363.544 340.079 -372.833 328.12 -380.572 314.685C-401.888 313.112 -413.823 312.235 -413.823 312.235L-411.712 308.567V308.563Z" stroke="white" stroke-width="2.48" stroke-miterlimit="10"/>
<path d="M-256.739 36.4706C-248.632 35.6428 -237.33 40.3669 -228.292 38.7909C-237.33 72.3762 -229.298 110.162 -207.535 142.813C-196.655 159.138 -183.181 175.205 -166.985 189.439C-155.125 158.276 -118.023 138.092 -74.5228 127.167C-63.6467 124.436 -52.4212 122.61 -41.2907 122.845C13.5189 136.395 65.4994 117.506 110.697 100.185C194.315 68.7002 280.196 37.2111 375.878 38.7036C387.791 37.2035 397.444 35.7111 407.139 34.306C416.835 32.9048 426.579 31.587 436.373 30.368C455.25 29.168 478.415 20.5134 497.293 19.3172C602.381 3.75119 672.119 45.148 728.877 90.6157C763.461 111.274 784.681 112.839 784.681 112.839L782.57 116.507C782.57 116.507 761.349 114.943 727.02 93.6461C651.043 27.0604 527.198 13.9361 390.21 33.8617C374.724 36.0871 355.911 38.0846 332.906 37.9668C300.532 41.9391 266.631 45.0872 237.254 56.1076C137.816 89.1688 47.4156 145.843 -70.1025 128.526C-83.0976 129.707 -95.1054 132.757 -105.906 137.211C-138.31 150.579 -159.864 176.588 -164.725 202.699C-182.065 188.565 -196.412 171.207 -208.549 154.065C-232.822 119.781 -243.368 79.1965 -232.822 43.5112C-241.861 41.9353 -253.162 40.3631 -261.923 40.6593L-256.751 36.4668L-256.739 36.4706Z" fill="white"/>
<path d="M-241.804 13.0855C-241.804 13.0855 -229.868 13.9665 -208.553 15.5349C-197.893 16.321 -190.495 22.0287 -184.784 30.9262C-192.979 47.4531 -195.945 69.0989 -191.213 87.3992C-186.481 105.699 -174.052 120.658 -151.453 123.806C-133.825 126.411 -116.056 119.815 -96.5295 112.846C-86.766 109.364 -76.5279 105.806 -65.8455 103.311C-55.1669 100.82 -44.0439 99.3917 -33.1336 102.103C-27.1525 103.341 -18.1145 104.913 -11.3359 103.341C108.442 82.8763 203.361 23.0502 328.527 30.5465C340.873 30.8275 352.721 31.025 363.271 30.2313C373.463 29.2098 383.705 28.2224 394.004 27.254C438.173 22.7388 483.439 2.76383 526.18 0.732155C619.14 -2.78055 680.333 35.3997 740.907 71.8787C776.779 88.1359 797.999 89.6967 797.999 89.6967L795.888 93.3651C795.888 93.3651 774.667 91.8005 738.963 74.8028C660.476 18.8046 548.939 5.80185 425.239 15.8691C407.569 17.3083 389.648 19.2185 371.542 21.5388C259.864 23.0464 162.685 54.5354 63.2474 93.8929C38.3888 104.913 11.267 112.786 -19.6069 112.155C-30.7754 109.47 -42.1186 107.442 -53.8567 108.069C-89.4737 111.331 -123.891 119.955 -149.695 136.733C-156.318 139.794 -165.01 139.551 -169.533 136.402C-198.914 104.917 -212.472 70.28 -193.435 35.1453C-193.078 26.1793 -200.008 19.9932 -210.664 19.2071C-231.979 17.6349 -243.915 16.7577 -243.915 16.7577L-241.804 13.0893V13.0855Z" stroke="white" stroke-width="2.48" stroke-miterlimit="10"/>
<path d="M-335.785 206.93C-268.967 237.158 -246.368 293.836 -243.383 347.708C-238.241 353.26 -232.568 358.565 -226.154 364.162C-219.74 369.76 -212.585 375.646 -204.481 382.356C-151.449 421.353 -81.3924 451.266 -4.55341 459.138C29.3471 462.287 67.7666 455.99 90.3656 435.526C97.1442 427.653 97.1442 418.209 90.3656 411.909C76.8047 402.464 63.164 392.993 50.2106 383.446C-12.3763 349.44 -46.3489 294.573 -27.1601 242.611C-23.2182 232.339 -17.1536 222.185 -7.83068 213.431C49.6866 177.336 124.266 160.015 198.846 145.847C250.826 136.402 284.723 103.341 334.444 92.3208C357.043 86.0245 381.901 86.0245 406.061 88.6904C419.899 87.5739 433.81 87.5663 447.617 88.5347C457.973 89.26 468.268 90.5397 478.427 92.3132C488.585 94.0866 498.607 96.3613 508.416 99.0766C519.763 101.765 531.064 106.486 540.102 112.782C558.182 160.012 623.72 180.476 675.7 207.241C605.64 183.625 537.843 156.863 513.379 103.732C503.729 100.649 493.822 98.0474 483.743 95.9778C473.664 93.9081 463.419 92.3702 453.105 91.4132C439.354 90.141 425.474 89.9018 411.704 90.8246C381.901 90.741 352.524 87.5929 325.402 97.0411C282.463 112.786 253.082 142.699 207.884 152.143C131.045 164.739 63.2475 183.628 2.85175 215.152C-7.61422 220.324 -14.5561 228.029 -19.8157 236.144C-54.9579 294.816 -14.2751 366.411 75.8666 389.538C84.7984 394.569 96.0125 400.888 102.795 408.563C109.573 416.238 111.833 425.291 103.927 435.522C94.8884 444.966 83.587 452.838 67.7665 455.987C-46.9262 475.27 -147.777 425.853 -219.732 368.875C-230.012 360.737 -239.7 352.44 -248.757 344.172C-257.666 295.408 -271.227 241.879 -337.095 213.819L-335.781 206.926L-335.785 206.93Z" stroke="white" stroke-width="2.48" stroke-miterlimit="10"/>
<path d="M-333.073 183.431C-268.967 222.99 -214.731 273.368 -223.951 335.484C-224.555 341.825 -222.683 348.756 -215.942 356.119C-209.205 363.483 -201.561 371.066 -192.785 378.699C-137.888 421.353 -58.7894 448.118 22.5687 451.266C33.8701 451.266 47.4272 446.542 47.4272 438.67C47.4272 433.946 40.6487 429.225 33.8663 426.073C9.56976 416.629 -10.014 404.044 -23.3206 389.8C-72.3542 341.058 -61.0527 276.512 -29.4156 226.13C-24.1408 217.21 -16.3217 209.486 -5.61652 204.287C58.7249 178.9 128.782 163.156 196.582 147.411C257.601 131.667 298.28 81.2889 373.171 83.3206C387.962 83.1573 402.013 82.3143 415.616 81.3079C445.726 78.0724 476.372 79.5307 507.47 87.965C517.838 90.7752 528.254 94.3638 538.72 98.8107C549.137 101.758 558.175 106.482 567.217 111.202C574.375 116.974 580.971 122.629 585.209 127.482C610.155 158.432 655.357 178.897 691.513 204.089C650.834 180.473 603.373 158.432 587.556 120.65C580.778 112.778 569.476 106.482 556.314 103.641C546.771 99.1715 536.244 95.5638 525.714 92.6321C493.211 84.008 460.632 81.437 428.273 83.2713C413.702 83.708 399.173 85.0143 383.42 84.5928C311.841 79.7206 257.601 117.506 201.102 137.971C133.304 163.16 51.9425 172.604 -14.0014 202.084C-22.9522 207.15 -29.4156 214.59 -33.9347 222.986C-63.3161 274.94 -67.8351 347.358 1.26837 387.005C17.0927 397.964 36.122 407.185 58.7211 413.481C70.0225 416.629 63.2401 429.225 54.202 435.522C20.3016 455.987 -24.8965 451.266 -63.3161 441.818C-119.816 426.073 -169.533 402.46 -207.329 369.509C-215.205 362.078 -222.018 355.462 -227.988 349.166C-223.773 285.96 -262.192 226.134 -333.438 187.339L-333.077 183.431H-333.073Z" fill="white"/>
</g>
</svg>
