<svg width="122" height="71" viewBox="0 0 122 71" fill="none" xmlns="http://www.w3.org/2000/svg">
<path opacity="0.5" d="M111.092 16.1844L23.0408 2L20.7558 16.1844" stroke="url(#paint0_linear_168_17536)" stroke-width="2"/>
<mask id="path-2-inside-1_168_17536" fill="white">
<path fill-rule="evenodd" clip-rule="evenodd" d="M122 25.5758C121.737 25.6032 121.471 25.6171 121.202 25.6171C116.672 25.6171 113 21.6586 113 16.7754C113 16.3354 113.03 15.9028 113.087 15.48H10.1138C10.1714 15.9028 10.2012 16.3354 10.2012 16.7754C10.2012 21.6586 6.52922 25.6171 1.99955 25.6171C1.30975 25.6171 0.639838 25.5253 -0.000244141 25.3525V61.022C0.639838 60.8492 1.30975 60.7574 1.99955 60.7574C6.52922 60.7574 10.2012 64.7159 10.2012 69.599C10.2012 69.9859 10.1782 70.3669 10.1335 70.7406H113.068C113.023 70.3669 113 69.9859 113 69.599C113 64.7159 116.672 60.7574 121.202 60.7574C121.471 60.7574 121.737 60.7713 122 60.7987V25.5758Z"/>
</mask>
<path d="M122 25.5758H124V23.3567L121.793 23.5866L122 25.5758ZM113.087 15.48L115.069 15.7499L115.378 13.48H113.087V15.48ZM10.1138 15.48V13.48H7.82299L8.13213 15.7499L10.1138 15.48ZM-0.000244141 25.3525L0.521275 23.4216L-2.00024 22.7406V25.3525H-0.000244141ZM-0.000244141 61.022H-2.00024V63.6339L0.521277 62.9528L-0.000244141 61.022ZM10.1335 70.7406L8.14767 70.5031L7.88012 72.7406H10.1335V70.7406ZM113.068 70.7406V72.7406H115.321L115.054 70.5031L113.068 70.7406ZM122 60.7987L121.793 62.7879L124 63.0178V60.7987H122ZM121.202 27.6171C121.54 27.6171 121.876 27.5995 122.207 27.565L121.793 23.5866C121.599 23.6068 121.402 23.6171 121.202 23.6171V27.6171ZM111 16.7754C111 22.619 115.429 27.6171 121.202 27.6171V23.6171C117.915 23.6171 115 20.6982 115 16.7754H111ZM111.106 15.2101C111.036 15.7222 111 16.2449 111 16.7754H115C115 16.4258 115.024 16.0834 115.069 15.7499L111.106 15.2101ZM10.1138 17.48H113.087V13.48H10.1138V17.48ZM12.2012 16.7754C12.2012 16.2449 12.1653 15.7222 12.0955 15.2101L8.13213 15.7499C8.17756 16.0834 8.20125 16.4258 8.20125 16.7754H12.2012ZM1.99955 27.6171C7.77265 27.6171 12.2012 22.619 12.2012 16.7754H8.20125C8.20125 20.6982 5.28579 23.6171 1.99955 23.6171V27.6171ZM-0.521763 27.2833C0.286159 27.5015 1.13136 27.6171 1.99955 27.6171V23.6171C1.48814 23.6171 0.993518 23.5492 0.521275 23.4216L-0.521763 27.2833ZM1.99976 61.022V25.3525H-2.00024V61.022H1.99976ZM0.521277 62.9528C0.993517 62.8253 1.48814 62.7574 1.99955 62.7574V58.7574C1.13136 58.7574 0.286159 58.873 -0.521765 59.0912L0.521277 62.9528ZM1.99955 62.7574C5.28579 62.7574 8.20125 65.6763 8.20125 69.599H12.2012C12.2012 63.7555 7.77265 58.7574 1.99955 58.7574V62.7574ZM8.20125 69.599C8.20125 69.9064 8.18294 70.2081 8.14767 70.5031L12.1194 70.9781C12.1735 70.5257 12.2012 70.0653 12.2012 69.599H8.20125ZM113.068 68.7406H10.1335V72.7406H113.068V68.7406ZM111 69.599C111 70.0653 111.028 70.5257 111.082 70.9781L115.054 70.5031C115.018 70.2081 115 69.9064 115 69.599H111ZM121.202 58.7574C115.429 58.7574 111 63.7555 111 69.599H115C115 65.6763 117.915 62.7574 121.202 62.7574V58.7574ZM122.207 58.8095C121.876 58.775 121.54 58.7574 121.202 58.7574V62.7574C121.402 62.7574 121.599 62.7677 121.793 62.7879L122.207 58.8095ZM120 25.5758V60.7987H124V25.5758H120Z" fill="url(#paint1_linear_168_17536)" mask="url(#path-2-inside-1_168_17536)"/>
<mask id="path-4-inside-2_168_17536" fill="white">
<path d="M14 15.48H108V70.48H14V15.48Z"/>
</mask>
<path d="M13.25 15.48V17.0078H14.75V15.48H13.25ZM13.25 20.0633V23.1189H14.75V20.0633H13.25ZM13.25 26.1744V29.23H14.75V26.1744H13.25ZM13.25 32.2855V35.3411H14.75V32.2855H13.25ZM13.25 38.3966V41.4522H14.75V38.3966H13.25ZM13.25 44.5078V47.5633H14.75V44.5078H13.25ZM13.25 50.6189V53.6744H14.75V50.6189H13.25ZM13.25 56.73V59.7855H14.75V56.73H13.25ZM13.25 62.8411V65.8967H14.75V62.8411H13.25ZM13.25 68.9522V70.48H14.75V68.9522H13.25ZM108.75 70.48V68.9522H107.25V70.48H108.75ZM108.75 65.8966V62.8411H107.25V65.8966H108.75ZM108.75 59.7855V56.73H107.25V59.7855H108.75ZM108.75 53.6744V50.6189H107.25V53.6744H108.75ZM108.75 47.5633V44.5078H107.25V47.5633H108.75ZM108.75 41.4522V38.3966H107.25V41.4522H108.75ZM108.75 35.3411V32.2855H107.25V35.3411H108.75ZM108.75 29.23V26.1744H107.25V29.23H108.75ZM108.75 23.1189V20.0633H107.25V23.1189H108.75ZM108.75 17.0077V15.48H107.25V17.0077H108.75ZM12.5 15.48V17.0078H15.5V15.48H12.5ZM12.5 20.0633V23.1189H15.5V20.0633H12.5ZM12.5 26.1744V29.23H15.5V26.1744H12.5ZM12.5 32.2855V35.3411H15.5V32.2855H12.5ZM12.5 38.3966V41.4522H15.5V38.3966H12.5ZM12.5 44.5078V47.5633H15.5V44.5078H12.5ZM12.5 50.6189V53.6744H15.5V50.6189H12.5ZM12.5 56.73V59.7855H15.5V56.73H12.5ZM12.5 62.8411V65.8967H15.5V62.8411H12.5ZM12.5 68.9522V70.48H15.5V68.9522H12.5ZM109.5 70.48V68.9522H106.5V70.48H109.5ZM109.5 65.8966V62.8411H106.5V65.8966H109.5ZM109.5 59.7855V56.73H106.5V59.7855H109.5ZM109.5 53.6744V50.6189H106.5V53.6744H109.5ZM109.5 47.5633V44.5078H106.5V47.5633H109.5ZM109.5 41.4522V38.3966H106.5V41.4522H109.5ZM109.5 35.3411V32.2855H106.5V35.3411H109.5ZM109.5 29.23V26.1744H106.5V29.23H109.5ZM109.5 23.1189V20.0633H106.5V23.1189H109.5ZM109.5 17.0077V15.48H106.5V17.0077H109.5Z" fill="url(#paint2_linear_168_17536)" mask="url(#path-4-inside-2_168_17536)"/>
<path fill-rule="evenodd" clip-rule="evenodd" d="M70.0043 40.3284V40.3303C71.5678 42.274 72.503 44.7364 72.503 47.4139C72.503 50.0915 71.54 52.6271 69.9334 54.5841L69.7949 54.7527L69.7584 54.5385C69.7273 54.3565 69.6904 54.1722 69.6482 53.987C68.8444 50.4862 66.2245 47.4842 61.9131 45.0537C59.0018 43.4168 57.3352 41.4456 56.8976 39.2064C56.6148 37.7581 56.8252 36.3037 57.2312 35.0578C57.6372 33.8123 58.2411 32.7687 58.754 32.1408L60.4311 30.1083C60.7254 29.752 61.2756 29.752 61.5699 30.1083L70.0048 40.3288L70.0043 40.3284ZM72.6573 38.2977V38.2968L61.4156 24.6752C61.2008 24.4149 60.7992 24.4149 60.5844 24.6752L49.3427 38.2973V38.2982L49.3063 38.3433C47.2381 40.887 46 44.1198 46 47.6391C46 55.8352 52.7156 62.48 61 62.48C69.2844 62.48 76 55.8352 76 47.6391C76 44.1198 74.7619 40.887 72.6932 38.3429L72.6563 38.2977H72.6573ZM52.0331 40.2842L53.0387 39.0653L53.0689 39.2905C53.0928 39.4686 53.1221 39.6477 53.1566 39.8277C53.807 43.2107 56.1312 46.0312 60.0169 48.2157C63.3946 50.1205 65.3612 52.3112 65.9278 54.7137C66.1641 55.7165 66.2063 56.703 66.1042 57.5656L66.0979 57.6188L66.049 57.6426C64.5248 58.3807 62.8108 58.7949 60.9995 58.7949C54.6467 58.7949 49.4966 53.6996 49.4966 47.4139C49.4966 44.7155 50.4461 42.2355 52.0326 40.2847L52.0331 40.2842Z" fill="url(#paint3_linear_168_17536)"/>
<defs>
<linearGradient id="paint0_linear_168_17536" x1="67.0663" y1="9.09219" x2="58.581" y2="61.7656" gradientUnits="userSpaceOnUse">
<stop stop-color="white"/>
<stop offset="1" stop-color="#B38429"/>
</linearGradient>
<linearGradient id="paint1_linear_168_17536" x1="60.9999" y1="15.48" x2="60.9999" y2="70.7406" gradientUnits="userSpaceOnUse">
<stop stop-color="white"/>
<stop offset="1" stop-color="#B38429"/>
</linearGradient>
<linearGradient id="paint2_linear_168_17536" x1="61" y1="15.48" x2="61" y2="70.48" gradientUnits="userSpaceOnUse">
<stop stop-color="white"/>
<stop offset="1" stop-color="#B38429"/>
</linearGradient>
<linearGradient id="paint3_linear_168_17536" x1="61" y1="24.48" x2="61" y2="62.48" gradientUnits="userSpaceOnUse">
<stop stop-color="white"/>
<stop offset="1" stop-color="#B38429"/>
</linearGradient>
</defs>
</svg>
