<svg width="14" height="16" viewBox="0 0 14 16" fill="none" xmlns="http://www.w3.org/2000/svg">
<path d="M4.14746 3.13574C4.14746 2.66178 4.26139 2.23112 4.48926 1.84375C4.72168 1.45182 5.03158 1.13965 5.41895 0.907227C5.80632 0.674805 6.23698 0.558594 6.71094 0.558594C7.18945 0.558594 7.6224 0.674805 8.00977 0.907227C8.39714 1.13965 8.70475 1.45182 8.93262 1.84375C9.16504 2.23112 9.28125 2.66178 9.28125 3.13574C9.28125 3.53678 9.19694 3.9082 9.02832 4.25C8.8597 4.5918 8.62956 4.88346 8.33789 5.125C8.04622 5.36654 7.71582 5.53288 7.34668 5.62402V9.95117C7.34668 10.457 7.32617 10.9036 7.28516 11.291C7.24414 11.6784 7.19173 12.0042 7.12793 12.2686C7.06868 12.5329 7.00033 12.7334 6.92285 12.8701C6.84993 13.0023 6.7793 13.0684 6.71094 13.0684C6.64258 13.0684 6.57194 13.0023 6.49902 12.8701C6.42611 12.7334 6.35775 12.5329 6.29395 12.2686C6.23014 12.0042 6.17773 11.6784 6.13672 11.291C6.0957 10.9036 6.0752 10.457 6.0752 9.95117V5.62402C5.70605 5.53288 5.37565 5.36654 5.08398 5.125C4.79232 4.88346 4.56217 4.5918 4.39355 4.25C4.22949 3.9082 4.14746 3.53678 4.14746 3.13574ZM5.97949 3.27246C6.22103 3.27246 6.42839 3.18587 6.60156 3.0127C6.77474 2.83496 6.86133 2.6276 6.86133 2.39062C6.86133 2.15365 6.77474 1.94857 6.60156 1.77539C6.42839 1.60221 6.22103 1.51562 5.97949 1.51562C5.74707 1.51562 5.54199 1.60221 5.36426 1.77539C5.19108 1.94857 5.10449 2.15365 5.10449 2.39062C5.10449 2.6276 5.19108 2.83496 5.36426 3.0127C5.54199 3.18587 5.74707 3.27246 5.97949 3.27246ZM6.71777 15.5703C5.68783 15.5703 4.76953 15.4883 3.96289 15.3242C3.16081 15.1647 2.48177 14.946 1.92578 14.668C1.36979 14.3945 0.945964 14.0824 0.654297 13.7314C0.367188 13.3851 0.223633 13.0228 0.223633 12.6445C0.223633 12.2845 0.326172 11.9541 0.53125 11.6533C0.736328 11.348 1.00977 11.0768 1.35156 10.8398C1.69336 10.6029 2.07161 10.4023 2.48633 10.2383C2.9056 10.0697 3.32943 9.94206 3.75781 9.85547C4.19076 9.76432 4.59408 9.71875 4.96777 9.71875V10.7168C4.63965 10.7214 4.2819 10.7692 3.89453 10.8604C3.50716 10.9469 3.1403 11.0677 2.79395 11.2227C2.44759 11.3776 2.16276 11.5622 1.93945 11.7764C1.7207 11.9906 1.61133 12.2253 1.61133 12.4805C1.61133 12.7767 1.73665 13.0479 1.9873 13.2939C2.24251 13.54 2.59798 13.752 3.05371 13.9297C3.514 14.1074 4.05404 14.2441 4.67383 14.3398C5.29818 14.4401 5.97949 14.4902 6.71777 14.4902C7.4515 14.4902 8.12826 14.4401 8.74805 14.3398C9.3724 14.2441 9.91243 14.1051 10.3682 13.9229C10.8285 13.7451 11.1862 13.5332 11.4414 13.2871C11.6966 13.0456 11.8242 12.7767 11.8242 12.4805C11.8242 12.2253 11.7126 11.9906 11.4893 11.7764C11.266 11.5622 10.9811 11.3776 10.6348 11.2227C10.2884 11.0677 9.92155 10.9469 9.53418 10.8604C9.15137 10.7692 8.79362 10.7214 8.46094 10.7168V9.71875C8.83919 9.71875 9.24251 9.76432 9.6709 9.85547C10.1038 9.94206 10.5277 10.0697 10.9424 10.2383C11.3617 10.4023 11.7422 10.6029 12.084 10.8398C12.4258 11.0768 12.6969 11.348 12.8975 11.6533C13.1025 11.9541 13.2051 12.2845 13.2051 12.6445C13.2051 13.0228 13.0615 13.3851 12.7744 13.7314C12.4873 14.0824 12.0658 14.3945 11.5098 14.668C10.9538 14.946 10.2725 15.1647 9.46582 15.3242C8.66374 15.4883 7.74772 15.5703 6.71777 15.5703Z" fill="#845ED6"/>
</svg>
