<svg width="100" height="100" viewBox="0 0 100 100" fill="none" xmlns="http://www.w3.org/2000/svg">
<rect width="100" height="100" fill="#1E2B55"/>
<rect width="100" height="100" fill="url(#paint0_linear_168_26597)"/>
<path opacity="0.5" d="M80.5489 35.6937L28.9797 21.3335L24.9901 35.6606" stroke="url(#paint1_linear_168_26597)" stroke-width="2"/>
<mask id="path-2-inside-1_168_26597" fill="white">
<path fill-rule="evenodd" clip-rule="evenodd" d="M86.6136 41.1505C86.4559 41.1669 86.2961 41.1753 86.1344 41.1753C83.4156 41.1753 81.2116 38.7993 81.2116 35.8684C81.2116 35.6042 81.2295 35.3446 81.2641 35.0908H19.4574C19.4919 35.3446 19.5098 35.6042 19.5098 35.8684C19.5098 38.7993 17.3058 41.1753 14.587 41.1753C14.173 41.1753 13.7709 41.1202 13.3867 41.0165V62.426C13.7709 62.3222 14.173 62.2672 14.587 62.2672C17.3058 62.2672 19.5098 64.6432 19.5098 67.5741C19.5098 67.8063 19.496 68.035 19.4692 68.2593H81.2523C81.2254 68.035 81.2116 67.8063 81.2116 67.5741C81.2116 64.6432 83.4156 62.2672 86.1344 62.2672C86.2961 62.2672 86.4559 62.2756 86.6136 62.292V41.1505Z"/>
</mask>
<path d="M86.6136 41.1505H88.6136V38.9314L86.4065 39.1613L86.6136 41.1505ZM81.2641 35.0908L83.2458 35.3607L83.5549 33.0908H81.2641V35.0908ZM19.4574 35.0908V33.0908H17.1665L17.4756 35.3607L19.4574 35.0908ZM13.3867 41.0165L13.9082 39.0856L11.3867 38.4046V41.0165H13.3867ZM13.3867 62.426H11.3867V65.0379L13.9082 64.3568L13.3867 62.426ZM19.4692 68.2593L17.4833 68.0218L17.2158 70.2593H19.4692V68.2593ZM81.2523 68.2593V70.2593H83.5057L83.2381 68.0218L81.2523 68.2593ZM86.6136 62.292L86.4065 64.2812L88.6136 64.5111V62.292H86.6136ZM86.1344 43.1753C86.3654 43.1753 86.5944 43.1633 86.8208 43.1397L86.4065 39.1613C86.3174 39.1705 86.2267 39.1753 86.1344 39.1753V43.1753ZM79.2116 35.8684C79.2116 39.7597 82.1722 43.1753 86.1344 43.1753V39.1753C84.659 39.1753 83.2116 37.8389 83.2116 35.8684H79.2116ZM79.2823 34.8209C79.2356 35.164 79.2116 35.5138 79.2116 35.8684H83.2116C83.2116 35.6947 83.2234 35.5252 83.2458 35.3607L79.2823 34.8209ZM19.4574 37.0908H81.2641V33.0908H19.4574V37.0908ZM21.5098 35.8684C21.5098 35.5138 21.4858 35.164 21.4391 34.8209L17.4756 35.3607C17.4981 35.5252 17.5098 35.6947 17.5098 35.8684H21.5098ZM14.587 43.1753C18.5492 43.1753 21.5098 39.7597 21.5098 35.8684H17.5098C17.5098 37.8389 16.0624 39.1753 14.587 39.1753V43.1753ZM12.8652 42.9473C13.4172 43.0964 13.9946 43.1753 14.587 43.1753V39.1753C14.3514 39.1753 14.1246 39.1441 13.9082 39.0856L12.8652 42.9473ZM15.3867 62.426V41.0165H11.3867V62.426H15.3867ZM13.9082 64.3568C14.1246 64.2984 14.3514 64.2672 14.587 64.2672V60.2672C13.9946 60.2672 13.4172 60.3461 12.8652 60.4952L13.9082 64.3568ZM14.587 64.2672C16.0624 64.2672 17.5098 65.6036 17.5098 67.5741H21.5098C21.5098 63.6828 18.5492 60.2672 14.587 60.2672V64.2672ZM17.5098 67.5741C17.5098 67.7268 17.5007 67.8762 17.4833 68.0218L21.455 68.4968C21.4912 68.1938 21.5098 67.8858 21.5098 67.5741H17.5098ZM81.2523 66.2593H19.4692V70.2593H81.2523V66.2593ZM79.2116 67.5741C79.2116 67.8858 79.2302 68.1938 79.2664 68.4968L83.2381 68.0218C83.2207 67.8762 83.2116 67.7268 83.2116 67.5741H79.2116ZM86.1344 60.2672C82.1722 60.2672 79.2116 63.6828 79.2116 67.5741H83.2116C83.2116 65.6036 84.659 64.2672 86.1344 64.2672V60.2672ZM86.8208 60.3027C86.5944 60.2792 86.3654 60.2672 86.1344 60.2672V64.2672C86.2267 64.2672 86.3174 64.2719 86.4065 64.2812L86.8208 60.3027ZM84.6136 41.1505V62.292H88.6136V41.1505H84.6136Z" fill="url(#paint2_linear_168_26597)" mask="url(#path-2-inside-1_168_26597)"/>
<mask id="path-4-inside-2_168_26597" fill="white">
<path d="M21.7899 35.0908H78.2105V68.1029H21.7899V35.0908Z"/>
</mask>
<path d="M20.7899 35.0908V36.0078H22.7899V35.0908H20.7899ZM20.7899 37.8418V39.6758H22.7899V37.8418H20.7899ZM20.7899 41.5098V43.3438H22.7899V41.5098H20.7899ZM20.7899 45.1778V47.0118H22.7899V45.1778H20.7899ZM20.7899 48.8458V50.6798H22.7899V48.8458H20.7899ZM20.7899 52.5138V54.3478H22.7899V52.5138H20.7899ZM20.7899 56.1819V58.0159H22.7899V56.1819H20.7899ZM20.7899 59.8499V61.6839H22.7899V59.8499H20.7899ZM20.7899 63.5179V65.3519H22.7899V63.5179H20.7899ZM20.7899 67.1859V68.1029H22.7899V67.1859H20.7899ZM79.2105 68.1029V67.1859H77.2105V68.1029H79.2105ZM79.2105 65.3519V63.5179H77.2105V65.3519H79.2105ZM79.2105 61.6839V59.8499H77.2105V61.6839H79.2105ZM79.2105 58.0159V56.1819H77.2105V58.0159H79.2105ZM79.2105 54.3479V52.5138H77.2105V54.3479H79.2105ZM79.2105 50.6798V48.8458H77.2105V50.6798H79.2105ZM79.2105 47.0118V45.1778H77.2105V47.0118H79.2105ZM79.2105 43.3438V41.5098H77.2105V43.3438H79.2105ZM79.2105 39.6758V37.8418H77.2105V39.6758H79.2105ZM79.2105 36.0078V35.0908H77.2105V36.0078H79.2105ZM19.7899 35.0908V36.0078H23.7899V35.0908H19.7899ZM19.7899 37.8418V39.6758H23.7899V37.8418H19.7899ZM19.7899 41.5098V43.3438H23.7899V41.5098H19.7899ZM19.7899 45.1778V47.0118H23.7899V45.1778H19.7899ZM19.7899 48.8458V50.6798H23.7899V48.8458H19.7899ZM19.7899 52.5138V54.3478H23.7899V52.5138H19.7899ZM19.7899 56.1819V58.0159H23.7899V56.1819H19.7899ZM19.7899 59.8499V61.6839H23.7899V59.8499H19.7899ZM19.7899 63.5179V65.3519H23.7899V63.5179H19.7899ZM19.7899 67.1859V68.1029H23.7899V67.1859H19.7899ZM80.2105 68.1029V67.1859H76.2105V68.1029H80.2105ZM80.2105 65.3519V63.5179H76.2105V65.3519H80.2105ZM80.2105 61.6839V59.8499H76.2105V61.6839H80.2105ZM80.2105 58.0159V56.1819H76.2105V58.0159H80.2105ZM80.2105 54.3479V52.5138H76.2105V54.3479H80.2105ZM80.2105 50.6798V48.8458H76.2105V50.6798H80.2105ZM80.2105 47.0118V45.1778H76.2105V47.0118H80.2105ZM80.2105 43.3438V41.5098H76.2105V43.3438H80.2105ZM80.2105 39.6758V37.8418H76.2105V39.6758H80.2105ZM80.2105 36.0078V35.0908H76.2105V36.0078H80.2105Z" fill="url(#paint3_linear_168_26597)" mask="url(#path-4-inside-2_168_26597)"/>
<path fill-rule="evenodd" clip-rule="evenodd" d="M55.4048 50.0053V50.0064C56.3432 51.1731 56.9045 52.6511 56.9045 54.2582C56.9045 55.8653 56.3266 57.3872 55.3622 58.5618L55.2791 58.6631L55.2572 58.5345C55.2385 58.4253 55.2164 58.3147 55.191 58.2035C54.7086 56.1022 53.1361 54.3004 50.5483 52.8415C48.8009 51.859 47.8006 50.6759 47.5379 49.3319C47.3682 48.4626 47.4944 47.5896 47.7381 46.8418C47.9818 46.0942 48.3443 45.4679 48.6521 45.091L49.6587 43.871C49.8354 43.6572 50.1657 43.6572 50.3423 43.871L55.4051 50.0056L55.4048 50.0053ZM56.9972 48.7865V48.7859L50.2497 40.61C50.1208 40.4537 49.8797 40.4537 49.7508 40.61L43.0033 48.7862V48.7868L42.9814 48.8138C41.7401 50.3406 40.9969 52.281 40.9969 54.3933C40.9969 59.3128 45.0278 63.3011 50.0002 63.3011C54.9727 63.3011 59.0035 59.3128 59.0035 54.3933C59.0035 52.281 58.2604 50.3406 57.0187 48.8136L56.9966 48.7865H56.9972ZM44.6181 49.9788L45.2217 49.2472L45.2398 49.3823C45.2542 49.4893 45.2717 49.5967 45.2925 49.7048C45.6829 51.7353 47.0779 53.4283 49.4102 54.7394C51.4375 55.8827 52.6179 57.1976 52.958 58.6397C53.0998 59.2415 53.1251 59.8337 53.0639 60.3514L53.0601 60.3834L53.0308 60.3976C52.1159 60.8407 51.0871 61.0893 49.9999 61.0893C46.1869 61.0893 43.0957 58.031 43.0957 54.2582C43.0957 52.6385 43.6656 51.15 44.6178 49.9791L44.6181 49.9788Z" fill="url(#paint4_linear_168_26597)"/>
<defs>
<linearGradient id="paint0_linear_168_26597" x1="50" y1="0" x2="50" y2="100" gradientUnits="userSpaceOnUse">
<stop stop-color="#1D4957"/>
<stop offset="1" stop-color="#1D3757"/>
</linearGradient>
<linearGradient id="paint1_linear_168_26597" x1="54.7643" y1="28.5136" x2="39.9491" y2="81.7172" gradientUnits="userSpaceOnUse">
<stop stop-color="white"/>
<stop offset="1" stop-color="#B38429"/>
</linearGradient>
<linearGradient id="paint2_linear_168_26597" x1="50.0002" y1="35.0908" x2="50.0002" y2="68.2593" gradientUnits="userSpaceOnUse">
<stop stop-color="white"/>
<stop offset="1" stop-color="#B38429"/>
</linearGradient>
<linearGradient id="paint3_linear_168_26597" x1="50.0002" y1="35.0908" x2="50.0002" y2="68.1029" gradientUnits="userSpaceOnUse">
<stop stop-color="white"/>
<stop offset="1" stop-color="#B38429"/>
</linearGradient>
<linearGradient id="paint4_linear_168_26597" x1="50.0002" y1="40.4928" x2="50.0002" y2="63.3011" gradientUnits="userSpaceOnUse">
<stop stop-color="white"/>
<stop offset="1" stop-color="#B38429"/>
</linearGradient>
</defs>
</svg>
