<svg width="16" height="16" viewBox="0 0 16 16" fill="none" xmlns="http://www.w3.org/2000/svg">
<path fill-rule="evenodd" clip-rule="evenodd" d="M1.86913 5.56878C1.68237 7.30405 1.69069 9.30537 1.95057 11.0336C2.09437 11.9898 2.87482 12.7229 3.8382 12.8067L4.84502 12.8942C6.94438 13.0767 9.05563 13.0767 11.155 12.8942L12.1618 12.8067C13.1252 12.7229 13.9056 11.9898 14.0494 11.0336C14.3093 9.30536 14.3177 7.30416 14.1309 5.56889C14.1067 5.36771 14.0796 5.16681 14.0494 4.96624C13.9056 4.00998 13.1252 3.27689 12.1618 3.19314L11.155 3.10562C9.05562 2.92313 6.94438 2.92313 4.84502 3.10562L3.8382 3.19314C2.87482 3.27689 2.09437 4.00998 1.95057 4.96624C1.92042 5.16677 1.89327 5.36764 1.86913 5.56878ZM4.93162 4.10186C6.97336 3.92438 9.02665 3.92438 11.0684 4.10186L12.0752 4.18938C12.5781 4.2331 12.9855 4.61578 13.0606 5.11495C13.0683 5.16679 13.0759 5.21865 13.0833 5.27053L9.37597 7.33016C8.52024 7.80557 7.47972 7.80557 6.62399 7.33016L2.9167 5.27056C2.92407 5.21866 2.93166 5.16679 2.93946 5.11495C3.01452 4.61578 3.42191 4.2331 3.9248 4.18938L4.93162 4.10186ZM13.2057 6.34651C13.335 7.85834 13.2866 9.38158 13.0606 10.8849C12.9855 11.3841 12.5781 11.7667 12.0752 11.8104L11.0684 11.898C9.02665 12.0755 6.97336 12.0755 4.93162 11.898L3.9248 11.8104C3.42191 11.7667 3.01452 11.3841 2.93946 10.8849C2.7134 9.38159 2.66502 7.85836 2.79433 6.34653L6.13835 8.20432C7.2961 8.84752 8.70386 8.84752 9.86161 8.20432L13.2057 6.34651Z" fill="#0284AD" stroke="#0284AD" stroke-width="0.5" stroke-linejoin="round"/>
</svg>
