<svg width="12" height="12" viewBox="0 0 12 12" fill="none" xmlns="http://www.w3.org/2000/svg">
<path fill-rule="evenodd" clip-rule="evenodd" d="M3.5 3C3.5 1.61929 4.61928 0.5 6 0.5C7.38072 0.5 8.5 1.61929 8.5 3C8.5 4.20948 7.64112 5.21836 6.5 5.44999V9.5C6.5 9.77614 6.27614 10 6 10C5.72386 10 5.5 9.77614 5.5 9.5V5.44999C4.35888 5.21836 3.5 4.20948 3.5 3ZM7.5 3C7.5 3.82843 6.82843 4.5 6 4.5C5.17157 4.5 4.5 3.82843 4.5 3C4.5 2.17157 5.17157 1.5 6 1.5C6.82843 1.5 7.5 2.17157 7.5 3Z" fill="#A0B6C3"/>
<path d="M3 7.5C2.83282 7.5 2.67671 7.58355 2.58398 7.72265L0.583976 10.7226C0.48169 10.8761 0.472154 11.0733 0.559163 11.2359C0.646173 11.3985 0.815603 11.5 1 11.5H11C11.1844 11.5 11.3538 11.3985 11.4408 11.2359C11.5278 11.0733 11.5183 10.8761 11.416 10.7226L9.41603 7.72265C9.32329 7.58355 9.16718 7.5 9 7.5H8C7.72386 7.5 7.5 7.72386 7.5 8C7.5 8.27614 7.72386 8.5 8 8.5H8.73241L10.0657 10.5H1.93426L3.26759 8.5H4C4.27614 8.5 4.5 8.27614 4.5 8C4.5 7.72386 4.27614 7.5 4 7.5H3Z" fill="#A0B6C3"/>
</svg>
