<svg width="16" height="10" viewBox="0 0 16 10" fill="none" xmlns="http://www.w3.org/2000/svg">
<path d="M4.66665 3.66675C3.93027 3.66675 3.33331 4.2637 3.33331 5.00008C3.33331 5.73646 3.93027 6.33341 4.66665 6.33341C5.40303 6.33341 5.99998 5.73646 5.99998 5.00008C5.99998 4.2637 5.40303 3.66675 4.66665 3.66675Z" fill="#0284AD"/>
<path fill-rule="evenodd" clip-rule="evenodd" d="M4.66665 1.16675C2.54955 1.16675 0.833313 2.88299 0.833313 5.00008C0.833313 7.11717 2.54955 8.83341 4.66665 8.83341C6.12036 8.83341 7.38414 8.02427 8.03385 6.83341H10.1666V8.33341C10.1666 8.60956 10.3905 8.83341 10.6666 8.83341H13C13.2761 8.83341 13.5 8.60956 13.5 8.33341V6.83341H14.6666C14.9428 6.83341 15.1666 6.60956 15.1666 6.33341V4.33341C15.1666 3.68908 14.6443 3.16675 14 3.16675H8.03385C7.38414 1.97589 6.12036 1.16675 4.66665 1.16675ZM1.83331 5.00008C1.83331 3.43527 3.10184 2.16675 4.66665 2.16675C5.82772 2.16675 6.82677 2.86521 7.26444 3.86693C7.34401 4.04905 7.52388 4.16675 7.72262 4.16675H14C14.092 4.16675 14.1666 4.24137 14.1666 4.33341V5.83341H13C12.7238 5.83341 12.5 6.05727 12.5 6.33341V7.83341H11.1666V6.33341C11.1666 6.05727 10.9428 5.83341 10.6666 5.83341H7.72262C7.52388 5.83341 7.34401 5.95112 7.26444 6.13323C6.82677 7.13495 5.82772 7.83341 4.66665 7.83341C3.10184 7.83341 1.83331 6.56489 1.83331 5.00008Z" fill="#0284AD"/>
<path d="M4.66665 3.66675C3.93027 3.66675 3.33331 4.2637 3.33331 5.00008C3.33331 5.73646 3.93027 6.33341 4.66665 6.33341C5.40303 6.33341 5.99998 5.73646 5.99998 5.00008C5.99998 4.2637 5.40303 3.66675 4.66665 3.66675Z" stroke="#0284AD" stroke-width="0.4"/>
<path fill-rule="evenodd" clip-rule="evenodd" d="M4.66665 1.16675C2.54955 1.16675 0.833313 2.88299 0.833313 5.00008C0.833313 7.11717 2.54955 8.83341 4.66665 8.83341C6.12036 8.83341 7.38414 8.02427 8.03385 6.83341H10.1666V8.33341C10.1666 8.60956 10.3905 8.83341 10.6666 8.83341H13C13.2761 8.83341 13.5 8.60956 13.5 8.33341V6.83341H14.6666C14.9428 6.83341 15.1666 6.60956 15.1666 6.33341V4.33341C15.1666 3.68908 14.6443 3.16675 14 3.16675H8.03385C7.38414 1.97589 6.12036 1.16675 4.66665 1.16675ZM1.83331 5.00008C1.83331 3.43527 3.10184 2.16675 4.66665 2.16675C5.82772 2.16675 6.82677 2.86521 7.26444 3.86693C7.34401 4.04905 7.52388 4.16675 7.72262 4.16675H14C14.092 4.16675 14.1666 4.24137 14.1666 4.33341V5.83341H13C12.7238 5.83341 12.5 6.05727 12.5 6.33341V7.83341H11.1666V6.33341C11.1666 6.05727 10.9428 5.83341 10.6666 5.83341H7.72262C7.52388 5.83341 7.34401 5.95112 7.26444 6.13323C6.82677 7.13495 5.82772 7.83341 4.66665 7.83341C3.10184 7.83341 1.83331 6.56489 1.83331 5.00008Z" stroke="#0284AD" stroke-width="0.4"/>
</svg>
