<svg width="16" height="19" viewBox="0 0 16 19" fill="none" xmlns="http://www.w3.org/2000/svg">
<path d="M9.3125 18.8984C9.16146 18.8984 9.03125 18.8464 8.92188 18.7422C8.8125 18.6432 8.74479 18.5156 8.71875 18.3594C8.58854 17.5312 8.45312 16.8359 8.3125 16.2734C8.17188 15.7109 7.98958 15.25 7.76562 14.8906C7.54688 14.5312 7.26042 14.2448 6.90625 14.0312C6.55208 13.8125 6.09896 13.638 5.54688 13.5078C5 13.3724 4.32031 13.25 3.50781 13.1406C3.34635 13.1198 3.21354 13.0547 3.10938 12.9453C3.00521 12.8307 2.95312 12.6953 2.95312 12.5391C2.95312 12.3828 3.00521 12.25 3.10938 12.1406C3.21354 12.026 3.34896 11.9583 3.51562 11.9375C4.32292 11.849 5.0026 11.7422 5.55469 11.6172C6.11198 11.4922 6.57031 11.3203 6.92969 11.1016C7.28906 10.8776 7.58073 10.5833 7.80469 10.2188C8.02865 9.85417 8.20833 9.38802 8.34375 8.82031C8.47917 8.2526 8.60417 7.55208 8.71875 6.71875C8.74479 6.5625 8.8125 6.4349 8.92188 6.33594C9.03125 6.23698 9.16146 6.1875 9.3125 6.1875C9.46354 6.1875 9.59375 6.23698 9.70312 6.33594C9.8125 6.4349 9.88021 6.5625 9.90625 6.71875C10.0312 7.55208 10.1641 8.2526 10.3047 8.82031C10.4453 9.38281 10.625 9.84635 10.8438 10.2109C11.0677 10.5703 11.3568 10.8594 11.7109 11.0781C12.0703 11.2969 12.5234 11.4714 13.0703 11.6016C13.6224 11.7266 14.3047 11.8385 15.1172 11.9375C15.2786 11.9635 15.4115 12.0339 15.5156 12.1484C15.6198 12.2578 15.6719 12.388 15.6719 12.5391C15.6719 12.6953 15.6198 12.8307 15.5156 12.9453C15.4115 13.0599 15.276 13.125 15.1094 13.1406C14.3021 13.2292 13.6198 13.3385 13.0625 13.4688C12.5104 13.5938 12.0521 13.7656 11.6875 13.9844C11.3281 14.1979 11.0391 14.4896 10.8203 14.8594C10.6016 15.224 10.4219 15.6901 10.2812 16.2578C10.1458 16.8307 10.0208 17.5312 9.90625 18.3594C9.88021 18.5156 9.8125 18.6432 9.70312 18.7422C9.59896 18.8464 9.46875 18.8984 9.3125 18.8984ZM3.71875 10.2031C3.51042 10.2031 3.39323 10.0911 3.36719 9.86719C3.30469 9.35677 3.23958 8.95573 3.17188 8.66406C3.10938 8.3724 3.0026 8.15365 2.85156 8.00781C2.70052 7.85677 2.47656 7.74479 2.17969 7.67188C1.88281 7.59375 1.47135 7.51562 0.945312 7.4375C0.710938 7.40104 0.59375 7.28385 0.59375 7.08594C0.59375 6.88802 0.697917 6.77083 0.90625 6.73438C1.4375 6.63542 1.85417 6.54688 2.15625 6.46875C2.46354 6.39062 2.69271 6.27865 2.84375 6.13281C2.99479 5.98698 3.10417 5.77344 3.17188 5.49219C3.23958 5.20573 3.30469 4.8099 3.36719 4.30469C3.39323 4.08073 3.51042 3.96875 3.71875 3.96875C3.92708 3.96875 4.04427 4.07552 4.07031 4.28906C4.13802 4.8151 4.20573 5.22656 4.27344 5.52344C4.34115 5.82031 4.44792 6.04427 4.59375 6.19531C4.74479 6.34115 4.97135 6.45052 5.27344 6.52344C5.57552 6.59115 5.99479 6.66146 6.53125 6.73438C6.61979 6.74479 6.69271 6.78385 6.75 6.85156C6.8125 6.91406 6.84375 6.99219 6.84375 7.08594C6.84375 7.27865 6.74219 7.39583 6.53906 7.4375C5.9974 7.53125 5.57552 7.61979 5.27344 7.70312C4.97135 7.78125 4.74479 7.89323 4.59375 8.03906C4.44792 8.1849 4.34115 8.40104 4.27344 8.6875C4.20573 8.97396 4.13802 9.3724 4.07031 9.88281C4.0599 9.97656 4.02083 10.0547 3.95312 10.1172C3.89062 10.1745 3.8125 10.2031 3.71875 10.2031ZM7.52344 4.59375C7.39323 4.59375 7.31771 4.52604 7.29688 4.39062C7.24479 4.07292 7.19792 3.82552 7.15625 3.64844C7.11458 3.47135 7.04688 3.33594 6.95312 3.24219C6.86458 3.14844 6.72917 3.07812 6.54688 3.03125C6.36458 2.97917 6.10677 2.92448 5.77344 2.86719C5.63281 2.84115 5.5625 2.76562 5.5625 2.64062C5.5625 2.52083 5.63021 2.44531 5.76562 2.41406C6.09896 2.35156 6.35938 2.29427 6.54688 2.24219C6.73438 2.1901 6.8724 2.11979 6.96094 2.03125C7.05469 1.9375 7.11979 1.80208 7.15625 1.625C7.19792 1.44792 7.24479 1.20573 7.29688 0.898438C7.31771 0.757812 7.39323 0.6875 7.52344 0.6875C7.64844 0.6875 7.72135 0.755208 7.74219 0.890625C7.79427 1.20833 7.84115 1.45833 7.88281 1.64062C7.92448 1.82292 7.98958 1.96094 8.07812 2.05469C8.17188 2.14323 8.3099 2.21354 8.49219 2.26562C8.67969 2.3125 8.9401 2.36198 9.27344 2.41406C9.40885 2.4401 9.47656 2.51562 9.47656 2.64062C9.47656 2.76562 9.41146 2.84115 9.28125 2.86719C8.94271 2.92969 8.67969 2.98698 8.49219 3.03906C8.3099 3.09115 8.17448 3.16406 8.08594 3.25781C7.9974 3.35156 7.92969 3.48698 7.88281 3.66406C7.84115 3.84115 7.79427 4.08594 7.74219 4.39844C7.72135 4.52865 7.64844 4.59375 7.52344 4.59375Z" fill="#0284AD"/>
</svg>
