<svg width="19" height="23" viewBox="0 0 19 23" fill="none" xmlns="http://www.w3.org/2000/svg">
<path d="M10.9009 22.4419C10.7215 22.4419 10.5669 22.38 10.437 22.2563C10.3071 22.1388 10.2267 21.9873 10.1958 21.8018C10.0412 20.8184 9.88037 19.9927 9.71338 19.3247C9.54639 18.6567 9.32992 18.1094 9.06396 17.6826C8.8042 17.2559 8.46403 16.9157 8.04346 16.6621C7.62288 16.4023 7.0848 16.1951 6.4292 16.0405C5.77979 15.8797 4.97266 15.7344 4.00781 15.6045C3.81608 15.5798 3.65837 15.5024 3.53467 15.3726C3.41097 15.2365 3.34912 15.0757 3.34912 14.8901C3.34912 14.7046 3.41097 14.5469 3.53467 14.417C3.65837 14.2809 3.81917 14.2005 4.01709 14.1758C4.97575 14.0706 5.78288 13.9438 6.43848 13.7954C7.10026 13.647 7.64453 13.4429 8.07129 13.1831C8.49805 12.9172 8.8444 12.5677 9.11035 12.1348C9.3763 11.7018 9.58968 11.1483 9.75049 10.4741C9.9113 9.79997 10.0597 8.9681 10.1958 7.97852C10.2267 7.79297 10.3071 7.64144 10.437 7.52393C10.5669 7.40641 10.7215 7.34766 10.9009 7.34766C11.0802 7.34766 11.2349 7.40641 11.3647 7.52393C11.4946 7.64144 11.575 7.79297 11.606 7.97852C11.7544 8.9681 11.9121 9.79997 12.0791 10.4741C12.2461 11.1421 12.4595 11.6925 12.7192 12.1255C12.9852 12.5522 13.3285 12.8955 13.749 13.1553C14.1758 13.415 14.7139 13.6222 15.3633 13.7769C16.0189 13.9253 16.8291 14.0583 17.7939 14.1758C17.9857 14.2067 18.1434 14.2902 18.2671 14.4263C18.3908 14.5562 18.4526 14.7108 18.4526 14.8901C18.4526 15.0757 18.3908 15.2365 18.2671 15.3726C18.1434 15.5086 17.9826 15.5859 17.7847 15.6045C16.826 15.7096 16.0158 15.8395 15.354 15.9941C14.6984 16.1426 14.1541 16.3467 13.7212 16.6064C13.2944 16.86 12.9512 17.2064 12.6914 17.6455C12.4316 18.0785 12.2183 18.632 12.0513 19.3062C11.8905 19.9865 11.742 20.8184 11.606 21.8018C11.575 21.9873 11.4946 22.1388 11.3647 22.2563C11.241 22.38 11.0864 22.4419 10.9009 22.4419ZM4.2583 12.1162C4.0109 12.1162 3.87174 11.9832 3.84082 11.7173C3.7666 11.1112 3.68929 10.6349 3.60889 10.2886C3.53467 9.94222 3.40788 9.68245 3.22852 9.50928C3.04915 9.32992 2.7832 9.19694 2.43066 9.11035C2.07812 9.01758 1.58952 8.9248 0.964844 8.83203C0.686523 8.78874 0.547363 8.64958 0.547363 8.41455C0.547363 8.17952 0.671061 8.04036 0.918457 7.99707C1.54932 7.87956 2.04411 7.77441 2.40283 7.68164C2.76774 7.58887 3.03988 7.45589 3.21924 7.28271C3.3986 7.10954 3.52848 6.85596 3.60889 6.52197C3.68929 6.1818 3.7666 5.71175 3.84082 5.11182C3.87174 4.84587 4.0109 4.71289 4.2583 4.71289C4.5057 4.71289 4.64486 4.83968 4.67578 5.09326C4.75618 5.71794 4.83659 6.20654 4.91699 6.55908C4.9974 6.91162 5.12419 7.17757 5.29736 7.35693C5.47673 7.53011 5.74577 7.65999 6.10449 7.74658C6.46322 7.82699 6.9611 7.91048 7.59814 7.99707C7.70329 8.00944 7.78988 8.05583 7.85791 8.13623C7.93213 8.21045 7.96924 8.30322 7.96924 8.41455C7.96924 8.64339 7.84863 8.78255 7.60742 8.83203C6.96419 8.94336 6.46322 9.0485 6.10449 9.14746C5.74577 9.24023 5.47673 9.37321 5.29736 9.54639C5.12419 9.71956 4.9974 9.97624 4.91699 10.3164C4.83659 10.6566 4.75618 11.1297 4.67578 11.7358C4.66341 11.8472 4.61702 11.9399 4.53662 12.0142C4.4624 12.0822 4.36963 12.1162 4.2583 12.1162ZM8.77637 5.45508C8.62174 5.45508 8.53206 5.37467 8.50732 5.21387C8.44548 4.83659 8.38981 4.54281 8.34033 4.33252C8.29085 4.12223 8.21045 3.96143 8.09912 3.8501C7.99398 3.73877 7.83317 3.65527 7.6167 3.59961C7.40023 3.53776 7.09408 3.47282 6.69824 3.40479C6.53125 3.37386 6.44775 3.28418 6.44775 3.13574C6.44775 2.99349 6.52816 2.90381 6.68896 2.8667C7.0848 2.79248 7.39404 2.72445 7.6167 2.6626C7.83936 2.60075 8.00326 2.51725 8.1084 2.41211C8.21973 2.30078 8.29704 2.13997 8.34033 1.92969C8.38981 1.7194 8.44548 1.4318 8.50732 1.06689C8.53206 0.899902 8.62174 0.816406 8.77637 0.816406C8.9248 0.816406 9.01139 0.89681 9.03613 1.05762C9.09798 1.4349 9.15365 1.73177 9.20312 1.94824C9.2526 2.16471 9.32992 2.32861 9.43506 2.43994C9.54639 2.54508 9.71029 2.62858 9.92676 2.69043C10.1494 2.74609 10.4587 2.80485 10.8545 2.8667C11.0153 2.89762 11.0957 2.9873 11.0957 3.13574C11.0957 3.28418 11.0184 3.37386 10.8638 3.40479C10.4618 3.479 10.1494 3.54704 9.92676 3.60889C9.71029 3.67074 9.54948 3.75732 9.44434 3.86865C9.33919 3.97998 9.25879 4.14079 9.20312 4.35107C9.15365 4.56136 9.09798 4.85205 9.03613 5.22314C9.01139 5.37777 8.9248 5.45508 8.77637 5.45508Z" fill="#6F5305" fill-opacity="1"/>
</svg>
