<svg width="103" height="179" viewBox="0 0 103 179" fill="none" xmlns="http://www.w3.org/2000/svg">
<path d="M95.996 83.9099C95.996 83.9099 95.996 83.8816 95.996 83.8695C85.4063 83.6474 76.886 75.0211 76.886 64.3877C76.886 64.2625 76.9022 64.1413 76.9062 64.0202C76.7688 64.0202 76.6354 64 76.498 64C76.3606 64 76.2272 64.0162 76.0898 64.0202C76.0898 64.1454 76.11 64.2665 76.11 64.3877C76.11 75.0211 67.5897 83.6514 57 83.8695C57 83.8816 57 83.8978 57 83.9099C67.4523 84.128 75.8715 92.5402 76.0898 102.98C76.2272 102.98 76.3606 103 76.502 103C76.6435 103 76.7769 102.984 76.9143 102.98C77.1326 92.5402 85.5518 84.128 96 83.9099H95.996Z" fill="url(#paint0_linear_273_1123)" stroke="url(#paint1_linear_273_1123)" stroke-width="2.98" stroke-miterlimit="10"/>
<path d="M47.9738 122.471C47.9738 122.471 47.9738 122.462 47.9738 122.458C44.6603 122.387 41.997 119.688 41.997 116.361C41.997 116.321 42.0014 116.286 42.0014 116.246C41.9572 116.246 41.9174 116.242 41.8731 116.242C41.8289 116.242 41.7891 116.246 41.7448 116.246C41.7448 116.286 41.7493 116.321 41.7493 116.361C41.7493 119.688 39.086 122.391 35.7725 122.458C35.7725 122.462 35.7725 122.466 35.7725 122.471C39.0418 122.537 41.6741 125.174 41.7404 128.439C41.7847 128.439 41.8245 128.443 41.8687 128.443C41.913 128.443 41.9528 128.439 41.997 128.439C42.0634 125.169 44.7001 122.537 47.965 122.471H47.9738Z" fill="white"/>
<path d="M102.26 170.732C102.26 170.732 102.26 170.723 102.26 170.714C98.1458 170.63 94.8322 167.273 94.8322 163.136C94.8322 163.087 94.8367 163.039 94.8411 162.995C94.788 162.995 94.7349 162.986 94.6818 162.986C94.6287 162.986 94.5756 162.995 94.5225 162.995C94.5225 163.043 94.5314 163.087 94.5314 163.136C94.5314 167.273 91.2178 170.63 87.1035 170.714C87.1035 170.719 87.1035 170.723 87.1035 170.732C91.1647 170.816 94.4385 174.09 94.5225 178.151C94.5756 178.151 94.6287 178.16 94.6818 178.16C94.7349 178.16 94.788 178.156 94.8411 178.151C94.9251 174.09 98.1989 170.816 102.26 170.732Z" fill="white"/>
<path d="M53.3135 27.2429C53.3135 27.2429 53.3135 27.2076 53.3135 27.1854C38.8382 26.8846 27.1899 15.077 27.1899 0.530879C27.1899 0.358343 27.212 0.194656 27.2164 0.026544C27.0262 0.026544 26.8448 0 26.6546 0C26.4643 0 26.2829 0.02212 26.0971 0.026544C26.0971 0.194656 26.1237 0.362767 26.1237 0.530879C26.1237 15.0814 14.4753 26.889 0 27.1854C0 27.2031 0 27.2253 0 27.2429C14.2851 27.5394 25.7963 39.0506 26.0927 53.3357C26.2829 53.3357 26.4643 53.3622 26.6546 53.3622C26.8448 53.3622 27.0306 53.3357 27.2164 53.3357C27.5128 39.0506 39.024 27.5394 53.3091 27.2429H53.3135Z" fill="white"/>
<defs>
<linearGradient id="paint0_linear_273_1123" x1="68.1232" y1="98.388" x2="85.191" y2="68.7976" gradientUnits="userSpaceOnUse">
<stop stop-color="#DCAF6C"/>
<stop offset="0.1" stop-color="#C5A289"/>
<stop offset="0.3" stop-color="#8D81D5"/>
<stop offset="0.34" stop-color="#847CE2"/>
<stop offset="0.64" stop-color="#CBA582"/>
<stop offset="0.7" stop-color="#CE9878"/>
<stop offset="0.81" stop-color="#D87760"/>
<stop offset="0.84" stop-color="#DC6C58"/>
<stop offset="0.99" stop-color="#DC9280"/>
</linearGradient>
<linearGradient id="paint1_linear_273_1123" x1="56.3856" y1="83.502" x2="96.6224" y2="83.502" gradientUnits="userSpaceOnUse">
<stop stop-color="#DCAF6C"/>
<stop offset="0.05" stop-color="#DCAF6C"/>
<stop offset="0.16" stop-color="#847CE2"/>
<stop offset="0.29" stop-color="#DC6C58"/>
<stop offset="0.39" stop-color="#DC6C58"/>
<stop offset="0.53" stop-color="#DCAF6C"/>
<stop offset="0.71" stop-color="#DC6C58"/>
<stop offset="0.84" stop-color="#DC9280"/>
<stop offset="0.9" stop-color="#6E5BDC"/>
<stop offset="0.99" stop-color="#DC9280"/>
</linearGradient>
</defs>
</svg>
