<svg width="25" height="24" viewBox="0 0 25 24" fill="none" xmlns="http://www.w3.org/2000/svg">
<path fill-rule="evenodd" clip-rule="evenodd" d="M12.4968 1.5C12.8775 1.49903 13.2258 1.71437 13.3951 2.05544L16.2585 7.82487L22.6443 8.75601C23.0205 8.81086 23.333 9.07424 23.4508 9.43565C23.5686 9.79707 23.4713 10.194 23.1997 10.46L18.5549 15.0089L19.6578 21.3281C19.7236 21.7046 19.5689 22.0856 19.2594 22.3098C18.9499 22.534 18.5397 22.5622 18.2024 22.3825L12.4994 19.3428L6.79766 22.3824C6.46019 22.5623 6.04965 22.534 5.74008 22.3095C5.4305 22.0849 5.27611 21.7035 5.34234 21.3268L6.45324 15.0089L1.80096 10.4606C1.52893 10.1947 1.43137 9.7974 1.54925 9.43569C1.66713 9.07399 1.98003 8.81049 2.35652 8.7559L8.77701 7.82489L11.6013 2.06004C11.7688 1.71811 12.116 1.50098 12.4968 1.5ZM12.5051 4.7611L10.3408 9.17876C10.1955 9.47534 9.91318 9.68106 9.58633 9.72845L4.64581 10.4449L8.22855 13.9475C8.46458 14.1783 8.57153 14.5106 8.51437 14.8357L7.66746 19.6523L12.0289 17.3272C12.3229 17.1704 12.6757 17.1704 12.9697 17.3271L17.3354 19.654L16.4942 14.8345C16.4376 14.5101 16.5443 14.1785 16.7796 13.9481L20.3579 10.4438L15.4514 9.72834C15.1267 9.68099 14.8458 9.47732 14.6999 9.18336L12.5051 4.7611Z" fill="#758F9E"/>
</svg>
