<svg width="12" height="15" viewBox="0 0 12 15" fill="none" xmlns="http://www.w3.org/2000/svg">
<path d="M5.59668 14.8389C4.5166 14.8389 3.57324 14.6452 2.7666 14.2578C1.96452 13.8704 1.34017 13.3281 0.893555 12.6309C0.44694 11.9336 0.223633 11.1178 0.223633 10.1836C0.223633 9.69141 0.26237 9.25391 0.339844 8.87109C0.421875 8.48828 0.519857 8.14421 0.633789 7.83887C0.752279 7.52897 0.870768 7.2373 0.989258 6.96387C1.10775 6.69043 1.20573 6.41927 1.2832 6.15039C1.36068 5.88151 1.39941 5.5944 1.39941 5.28906C1.39941 5.13867 1.3903 4.97461 1.37207 4.79688C1.3584 4.61458 1.35156 4.48014 1.35156 4.39355C1.35156 4.24316 1.39486 4.12012 1.48145 4.02441C1.56803 3.92871 1.68197 3.88086 1.82324 3.88086C2.06478 3.88086 2.30859 3.95378 2.55469 4.09961C2.80534 4.24544 3.02865 4.44824 3.22461 4.70801C3.42513 4.96322 3.5778 5.25944 3.68262 5.59668L3.34082 5.66504C3.4502 5.47363 3.51855 5.30501 3.5459 5.15918C3.5778 5.00879 3.59375 4.85612 3.59375 4.70117C3.58919 4.25 3.50488 3.82161 3.34082 3.41602C3.18132 3.01042 2.97624 2.62533 2.72559 2.26074C2.47949 1.89616 2.22201 1.55208 1.95312 1.22852C1.88021 1.14648 1.82552 1.06217 1.78906 0.975586C1.7526 0.888997 1.73438 0.802409 1.73438 0.71582C1.73438 0.49707 1.8278 0.333008 2.01465 0.223633C2.20605 0.109701 2.46354 0.0527344 2.78711 0.0527344C3.38867 0.0527344 4.02214 0.125651 4.6875 0.271484C5.35742 0.41276 6.02051 0.636068 6.67676 0.941406C7.33757 1.24219 7.96419 1.62728 8.55664 2.09668C9.14909 2.56152 9.67318 3.11523 10.1289 3.75781C10.5892 4.39583 10.9515 5.12728 11.2158 5.95215C11.4801 6.77702 11.6123 7.69987 11.6123 8.7207C11.6123 9.63672 11.4688 10.4707 11.1816 11.2227C10.8991 11.9746 10.4912 12.6195 9.95801 13.1572C9.4248 13.695 8.78906 14.1097 8.05078 14.4014C7.31706 14.693 6.49902 14.8389 5.59668 14.8389ZM5.66504 13.8818C6.64941 13.8818 7.51302 13.6631 8.25586 13.2256C8.9987 12.7926 9.5752 12.1865 9.98535 11.4072C10.4001 10.6279 10.6074 9.72103 10.6074 8.68652C10.6074 7.81152 10.4844 6.98893 10.2383 6.21875C9.99219 5.44401 9.63444 4.73991 9.16504 4.10645C8.69564 3.47298 8.12826 2.92611 7.46289 2.46582C6.80208 2.00098 6.05241 1.63867 5.21387 1.37891C4.37988 1.11914 3.4707 0.977865 2.48633 0.955078L2.6709 0.736328C3.04004 1.07812 3.35677 1.46549 3.62109 1.89844C3.88542 2.33138 4.08822 2.79622 4.22949 3.29297C4.37533 3.78516 4.44824 4.29329 4.44824 4.81738C4.44824 5.03613 4.42318 5.27539 4.37305 5.53516C4.32747 5.79036 4.26139 6.03418 4.1748 6.2666C4.09277 6.49902 3.99251 6.69043 3.87402 6.84082C3.76009 6.98665 3.63477 7.05957 3.49805 7.05957C3.44336 7.05957 3.39779 7.04362 3.36133 7.01172C3.32487 6.97526 3.2998 6.92057 3.28613 6.84766C3.21322 6.5332 3.12207 6.25749 3.0127 6.02051C2.90332 5.77897 2.77344 5.57161 2.62305 5.39844C2.47721 5.2207 2.31087 5.07715 2.12402 4.96777L2.28125 4.69434C2.31315 4.79915 2.34049 4.91081 2.36328 5.0293C2.38607 5.14779 2.39746 5.27311 2.39746 5.40527C2.39746 5.76074 2.35645 6.08431 2.27441 6.37598C2.19694 6.66309 2.09668 6.94108 1.97363 7.20996C1.85514 7.47884 1.73438 7.75684 1.61133 8.04395C1.49284 8.33105 1.39258 8.64779 1.31055 8.99414C1.22852 9.34049 1.1875 9.73698 1.1875 10.1836C1.1875 10.9219 1.37435 11.569 1.74805 12.125C2.12174 12.6764 2.64355 13.1071 3.31348 13.417C3.98796 13.7269 4.77181 13.8818 5.66504 13.8818ZM5.75391 12.918C5.11589 12.918 4.60091 12.7425 4.20898 12.3916C3.82161 12.0361 3.62793 11.5713 3.62793 10.9971C3.62793 10.6963 3.67122 10.4388 3.75781 10.2246C3.84896 10.0059 3.95378 9.8099 4.07227 9.63672C4.19076 9.45898 4.30013 9.29036 4.40039 9.13086C4.50065 8.9668 4.56445 8.78678 4.5918 8.59082C4.59635 8.55892 4.60775 8.54069 4.62598 8.53613C4.64876 8.52702 4.67155 8.53158 4.69434 8.5498C4.85384 8.69108 4.986 8.84831 5.09082 9.02148C5.2002 9.1901 5.29818 9.3724 5.38477 9.56836C5.56706 9.32227 5.69694 8.95996 5.77441 8.48145C5.85189 7.99837 5.861 7.47656 5.80176 6.91602C5.7972 6.88411 5.80404 6.86133 5.82227 6.84766C5.84049 6.82943 5.86556 6.82715 5.89746 6.84082C6.39876 7.0778 6.81803 7.3877 7.15527 7.77051C7.49251 8.15332 7.74544 8.57031 7.91406 9.02148C8.08724 9.47266 8.17383 9.92155 8.17383 10.3682C8.17383 10.8193 8.08496 11.2386 7.90723 11.626C7.72949 12.0133 7.46061 12.3255 7.10059 12.5625C6.74512 12.7995 6.29622 12.918 5.75391 12.918Z" fill="#EB5A29"/>
</svg>
